<svg width="207" height="87" viewBox="0 0 207 87" fill="none" xmlns="http://www.w3.org/2000/svg">
<path d="M3.53603 19.16C2.80003 19.16 2.19736 18.9253 1.72803 18.456C1.26936 17.9866 1.04003 17.2773 1.04003 16.328V10.2H3.02403V16.472C3.02403 16.8346 3.10403 17.1066 3.26403 17.288C3.42403 17.4693 3.65336 17.56 3.95203 17.56C4.27203 17.56 4.51203 17.4693 4.67203 17.288C4.8427 17.096 4.92803 16.8133 4.92803 16.44V10.2H6.65603V16.44C6.65603 16.8133 6.73603 17.096 6.89603 17.288C7.0667 17.4693 7.31203 17.56 7.63203 17.56C7.9307 17.56 8.1547 17.4693 8.30403 17.288C8.46403 17.1066 8.54403 16.8346 8.54403 16.472V10.2H10.528V16.328C10.528 17.2773 10.2987 17.9866 9.84003 18.456C9.38136 18.9253 8.7787 19.16 8.03203 19.16C7.48803 19.16 7.02937 19.0533 6.65603 18.84C6.2827 18.616 6.0107 18.3546 5.84003 18.056H5.74403C5.5627 18.3546 5.28536 18.616 4.91203 18.84C4.5387 19.0533 4.08003 19.16 3.53603 19.16Z" fill="#1C231F"/>
<path d="M5.60941 8.96796C5.17207 8.96796 4.76674 8.90396 4.39341 8.77596C4.00941 8.63729 3.70007 8.43996 3.46541 8.18396C3.23074 7.91729 3.11341 7.58662 3.11341 7.19196C3.11341 6.73329 3.27874 6.34396 3.60941 6.02396C3.92941 5.70396 4.36674 5.45862 4.92141 5.28796C5.47607 5.11729 6.09474 5.03196 6.77741 5.03196C7.47074 5.03196 8.09474 5.11729 8.64941 5.28796C9.20407 5.45862 9.64674 5.70396 9.97741 6.02396C10.2974 6.34396 10.4574 6.73329 10.4574 7.19196C10.4574 7.58662 10.3401 7.91729 10.1054 8.18396C9.87074 8.45062 9.56674 8.64796 9.19341 8.77596C8.80941 8.90396 8.39874 8.96796 7.96141 8.96796L7.70541 8.02396C7.79074 8.02396 7.89741 8.01329 8.02541 7.99196C8.15341 7.95996 8.28141 7.91729 8.40941 7.86396C8.52674 7.79996 8.63341 7.71996 8.72941 7.62396C8.81474 7.51729 8.85741 7.38396 8.85741 7.22396C8.85741 6.92529 8.67607 6.69062 8.31341 6.51996C7.95074 6.33862 7.43874 6.24796 6.77741 6.24796C6.10541 6.24796 5.59341 6.33862 5.24141 6.51996C4.88941 6.69062 4.71341 6.92529 4.71341 7.22396C4.71341 7.38396 4.76141 7.51729 4.85741 7.62396C4.94274 7.71996 5.04941 7.79996 5.17741 7.86396C5.30541 7.91729 5.43341 7.95996 5.56141 7.99196C5.68941 8.01329 5.79074 8.02396 5.86541 8.02396L5.60941 8.96796Z" fill="#1C231F"/>
<path d="M15.5294 19.16C14.5054 19.16 13.7694 18.888 13.3214 18.344C12.8734 17.8 12.6494 17.096 12.6494 16.232V10.2H14.6494V16.376C14.6494 16.7493 14.7187 17.0426 14.8574 17.256C14.9961 17.4586 15.2307 17.56 15.5614 17.56C15.8814 17.56 16.1107 17.4586 16.2494 17.256C16.3881 17.0426 16.4574 16.7493 16.4574 16.376V12.968C16.4574 12.392 16.5427 11.8853 16.7134 11.448C16.8947 11 17.1881 10.6533 17.5934 10.408C17.9987 10.1626 18.5481 10.04 19.2414 10.04C20.2761 10.04 21.0121 10.312 21.4494 10.856C21.8974 11.3893 22.1214 12.0933 22.1214 12.968V19H20.1214V12.824C20.1214 12.4506 20.0521 12.1626 19.9134 11.96C19.7747 11.7466 19.5454 11.64 19.2254 11.64C18.9054 11.64 18.6707 11.7466 18.5214 11.96C18.3827 12.1626 18.3134 12.4506 18.3134 12.824V16.232C18.3134 16.808 18.2227 17.32 18.0414 17.768C17.8707 18.2053 17.5827 18.5466 17.1774 18.792C16.7721 19.0373 16.2227 19.16 15.5294 19.16Z" fill="#1C231F"/>
<path d="M17.0469 8.96796C16.6096 8.96796 16.2042 8.90396 15.8309 8.77596C15.4469 8.63729 15.1376 8.43996 14.9029 8.18396C14.6682 7.91729 14.5509 7.58662 14.5509 7.19196C14.5509 6.73329 14.7162 6.34396 15.0469 6.02396C15.3669 5.70396 15.8042 5.45862 16.3589 5.28796C16.9029 5.11729 17.5162 5.03196 18.1989 5.03196C18.9242 5.03196 19.5642 5.12262 20.1189 5.30396C20.6736 5.47462 21.1109 5.70929 21.4309 6.00796C21.7402 6.29596 21.8949 6.63196 21.8949 7.01596C21.8949 7.19729 21.8522 7.35196 21.7669 7.47996C21.6816 7.60796 21.5536 7.72529 21.3829 7.83196V7.86396C21.5002 7.83196 21.6549 7.80529 21.8469 7.78396C22.0282 7.76262 22.1829 7.75196 22.3109 7.75196H22.6789V8.96796H19.4149L19.1589 8.02396C19.2336 8.02396 19.3349 8.01329 19.4629 7.99196C19.5909 7.95996 19.7189 7.91729 19.8469 7.86396C19.9749 7.79996 20.0869 7.71996 20.1829 7.62396C20.2682 7.51729 20.3109 7.38396 20.3109 7.22396C20.3109 6.92529 20.1296 6.69062 19.7669 6.51996C19.4042 6.33862 18.8869 6.24796 18.2149 6.24796C17.5536 6.24796 17.0469 6.33862 16.6949 6.51996C16.3322 6.69062 16.1509 6.92529 16.1509 7.22396C16.1509 7.38396 16.1989 7.51729 16.2949 7.62396C16.3802 7.71996 16.4869 7.79996 16.6149 7.86396C16.7429 7.91729 16.8709 7.95996 16.9989 7.99196C17.1269 8.01329 17.2282 8.02396 17.3029 8.02396L17.0469 8.96796Z" fill="#1C231F"/>
<path d="M28.1152 19.16C26.7818 19.16 25.8005 18.8453 25.1712 18.216C24.5525 17.576 24.2432 16.6746 24.2432 15.512V10.2H26.2912V15.72C26.2912 16.3066 26.4352 16.76 26.7232 17.08C27.0218 17.4 27.4858 17.56 28.1152 17.56C28.7338 17.56 29.1872 17.4 29.4752 17.08C29.7632 16.76 29.9072 16.3066 29.9072 15.72V7.57596H31.9392V15.512C31.9392 16.6746 31.6298 17.576 31.0112 18.216C30.3925 18.8453 29.4272 19.16 28.1152 19.16Z" fill="#1C231F"/>
<path d="M35.4625 19V12.52C35.4625 12.1893 35.3772 11.9546 35.2065 11.816C35.0359 11.6773 34.7959 11.608 34.4865 11.608C34.2732 11.608 34.0705 11.6346 33.8785 11.688C33.6865 11.7306 33.5159 11.784 33.3665 11.848L33.1105 10.408C33.3559 10.3013 33.6545 10.216 34.0065 10.152C34.3585 10.0773 34.7212 10.04 35.0945 10.04C35.8625 10.04 36.4545 10.216 36.8705 10.568C37.2972 10.9093 37.5105 11.4533 37.5105 12.2V19H35.4625Z" fill="#1C231F"/>
<path d="M45.4098 21.88V13.416C45.4098 13.032 45.3458 12.712 45.2178 12.456C45.1004 12.1893 44.9244 11.9866 44.6898 11.848C44.4551 11.7093 44.1564 11.64 43.7938 11.64C43.6018 11.64 43.4044 11.672 43.2018 11.736C43.0098 11.7893 42.8338 11.88 42.6738 12.008C42.5138 12.1253 42.3858 12.296 42.2898 12.52C42.1938 12.7333 42.1458 13 42.1458 13.32V16.984C42.1458 17.1866 42.1884 17.3413 42.2738 17.448C42.3698 17.544 42.5191 17.592 42.7218 17.592C42.8071 17.592 42.8978 17.5813 42.9938 17.56C43.0898 17.5386 43.1804 17.512 43.2658 17.48L43.5538 18.84C43.3298 18.9466 43.0738 19.0266 42.7858 19.08C42.5084 19.1333 42.2524 19.16 42.0178 19.16C41.4098 19.16 40.9351 18.984 40.5938 18.632C40.2631 18.2693 40.0978 17.7573 40.0978 17.096V13.496C40.0978 12.9093 40.0124 12.44 39.8418 12.088C39.6711 11.736 39.4365 11.4266 39.1378 11.16L40.4978 10.04C40.6791 10.168 40.8658 10.3546 41.0578 10.6C41.2604 10.8453 41.3991 11.08 41.4738 11.304H41.5218C41.7671 10.9946 42.0338 10.7493 42.3218 10.568C42.6204 10.3866 42.9351 10.2533 43.2658 10.168C43.6071 10.0826 43.9591 10.04 44.3218 10.04C44.9831 10.04 45.5484 10.168 46.0178 10.424C46.4871 10.68 46.8391 11.048 47.0738 11.528C47.3191 11.9973 47.4418 12.568 47.4418 13.24V21.88H45.4098Z" fill="#1C231F"/>
<path d="M50.8513 13.64C50.2006 13.64 49.7313 13.4853 49.4433 13.176C49.166 12.856 49.0273 12.504 49.0273 12.12C49.0273 12.0026 49.0379 11.8746 49.0593 11.736C49.0806 11.5866 49.1073 11.4426 49.1393 11.304C49.1819 11.1546 49.2299 11.032 49.2833 10.936H50.8353C50.7926 11.0106 50.7553 11.1013 50.7233 11.208C50.702 11.3146 50.6913 11.4266 50.6913 11.544C50.6913 11.6933 50.7339 11.8213 50.8193 11.928C50.9046 12.024 51.0433 12.072 51.2353 12.072H53.5553V13.64H50.8513ZM50.8513 18.392C50.2006 18.392 49.7313 18.2373 49.4433 17.928C49.166 17.6186 49.0273 17.272 49.0273 16.888C49.0273 16.7706 49.0379 16.6373 49.0593 16.488C49.0806 16.3386 49.1073 16.1946 49.1393 16.056C49.1819 15.9066 49.2299 15.784 49.2833 15.688H50.8353C50.7926 15.7733 50.7553 15.8693 50.7233 15.976C50.702 16.0826 50.6913 16.1946 50.6913 16.312C50.6913 16.4613 50.7339 16.584 50.8193 16.68C50.9046 16.776 51.0433 16.824 51.2353 16.824H53.5553V18.392H50.8513Z" fill="#1C231F"/>
<path d="M56.1689 19.128C55.9556 19.128 55.7049 19.096 55.4169 19.032C55.1396 18.9786 54.8836 18.8986 54.6489 18.792L54.9369 17.448C55.0329 17.48 55.1236 17.5066 55.2089 17.528C55.3049 17.5386 55.4009 17.544 55.4969 17.544C55.6569 17.544 55.7849 17.5013 55.8809 17.416C55.9876 17.3306 56.0409 17.1813 56.0409 16.968V13.496C56.0409 12.9093 55.9556 12.44 55.7849 12.088C55.6142 11.736 55.3796 11.4266 55.0809 11.16L56.4409 10.04C56.6222 10.168 56.8089 10.3546 57.0009 10.6C57.1929 10.8453 57.3316 11.08 57.4169 11.304H57.4649C57.6996 11.0053 57.9556 10.7653 58.2329 10.584C58.5209 10.4026 58.8302 10.2693 59.1609 10.184C59.5022 10.088 59.8542 10.04 60.2169 10.04C60.8889 10.04 61.4489 10.168 61.8969 10.424C62.3449 10.68 62.6756 11.048 62.8889 11.528C63.1129 11.9973 63.2249 12.568 63.2249 13.24V19H61.1929V13.432C61.1929 13.048 61.1396 12.728 61.0329 12.472C60.9369 12.2053 60.7822 12.0026 60.5689 11.864C60.3556 11.7146 60.0729 11.64 59.7209 11.64C59.5182 11.64 59.3209 11.672 59.1289 11.736C58.9369 11.7893 58.7609 11.88 58.6009 12.008C58.4409 12.1253 58.3129 12.296 58.2169 12.52C58.1316 12.7333 58.0889 13 58.0889 13.32V17.064C58.0889 17.7146 57.9182 18.2213 57.5769 18.584C57.2462 18.9466 56.7769 19.128 56.1689 19.128Z" fill="#1C231F"/>
<path d="M66.6325 13.64C65.9819 13.64 65.5125 13.4853 65.2245 13.176C64.9472 12.856 64.8085 12.504 64.8085 12.12C64.8085 12.0026 64.8192 11.8746 64.8405 11.736C64.8619 11.5866 64.8885 11.4426 64.9205 11.304C64.9632 11.1546 65.0112 11.032 65.0645 10.936H66.6165C66.5739 11.0106 66.5365 11.1013 66.5045 11.208C66.4832 11.3146 66.4725 11.4266 66.4725 11.544C66.4725 11.6933 66.5152 11.8213 66.6005 11.928C66.6859 12.024 66.8245 12.072 67.0165 12.072H69.3365V13.64H66.6325ZM66.6325 18.392C65.9819 18.392 65.5125 18.2373 65.2245 17.928C64.9472 17.6186 64.8085 17.272 64.8085 16.888C64.8085 16.7706 64.8192 16.6373 64.8405 16.488C64.8619 16.3386 64.8885 16.1946 64.9205 16.056C64.9632 15.9066 65.0112 15.784 65.0645 15.688H66.6165C66.5739 15.7733 66.5365 15.8693 66.5045 15.976C66.4832 16.0826 66.4725 16.1946 66.4725 16.312C66.4725 16.4613 66.5152 16.584 66.6005 16.68C66.6859 16.776 66.8245 16.824 67.0165 16.824H69.3365V18.392H66.6325Z" fill="#1C231F"/>
<path d="M76.8942 21.88V13.416C76.8942 13.032 76.8302 12.712 76.7022 12.456C76.5848 12.1893 76.4088 11.9866 76.1742 11.848C75.9395 11.7093 75.6408 11.64 75.2782 11.64C75.0862 11.64 74.8888 11.672 74.6862 11.736C74.4942 11.7893 74.3182 11.88 74.1582 12.008C73.9982 12.1253 73.8702 12.296 73.7742 12.52C73.6782 12.7333 73.6302 13 73.6302 13.32V16.984C73.6302 17.1866 73.6728 17.3413 73.7582 17.448C73.8542 17.544 74.0035 17.592 74.2062 17.592C74.2915 17.592 74.3822 17.5813 74.4782 17.56C74.5742 17.5386 74.6648 17.512 74.7502 17.48L75.0382 18.84C74.8142 18.9466 74.5582 19.0266 74.2702 19.08C73.9928 19.1333 73.7368 19.16 73.5022 19.16C72.8942 19.16 72.4195 18.984 72.0782 18.632C71.7475 18.2693 71.5822 17.7573 71.5822 17.096V13.496C71.5822 12.9093 71.4968 12.44 71.3262 12.088C71.1555 11.736 70.9208 11.4266 70.6222 11.16L71.9822 10.04C72.1635 10.168 72.3502 10.3546 72.5422 10.6C72.7448 10.8453 72.8835 11.08 72.9582 11.304H73.0062C73.2515 10.9946 73.5182 10.7493 73.8062 10.568C74.1048 10.3866 74.4195 10.2533 74.7502 10.168C75.0915 10.0826 75.4435 10.04 75.8062 10.04C76.4675 10.04 77.0328 10.168 77.5022 10.424C77.9715 10.68 78.3235 11.048 78.5582 11.528C78.8035 11.9973 78.9262 12.568 78.9262 13.24V21.88H76.8942Z" fill="#1C231F"/>
<path d="M82.4157 19V12.52C82.4157 12.1893 82.3303 11.9546 82.1597 11.816C81.989 11.6773 81.749 11.608 81.4397 11.608C81.2263 11.608 81.0237 11.6346 80.8317 11.688C80.6397 11.7306 80.469 11.784 80.3197 11.848L80.0637 10.408C80.309 10.3013 80.6077 10.216 80.9597 10.152C81.3117 10.0773 81.6743 10.04 82.0477 10.04C82.8157 10.04 83.4077 10.216 83.8237 10.568C84.2503 10.9093 84.4637 11.4533 84.4637 12.2V19H82.4157Z" fill="#1C231F"/>
<path d="M88.6029 19.16C88.0376 19.16 87.5576 19.016 87.1629 18.728C86.7789 18.4293 86.5869 17.9173 86.5869 17.192V10.2H88.6349V17.048C88.6349 17.2506 88.6776 17.4 88.7629 17.496C88.8589 17.5813 89.0136 17.624 89.2269 17.624C89.3229 17.624 89.4189 17.6186 89.5149 17.608C89.6109 17.5866 89.7122 17.56 89.8189 17.528L90.0909 18.824C89.8349 18.9413 89.5789 19.0266 89.3229 19.08C89.0776 19.1333 88.8376 19.16 88.6029 19.16Z" fill="#1C231F"/>
<path d="M93.1765 19.16C92.4512 19.16 91.9019 18.936 91.5285 18.488C91.1659 18.04 90.9845 17.4373 90.9845 16.68C90.9845 16.1253 91.0805 15.6453 91.2725 15.24C91.4752 14.824 91.7739 14.504 92.1685 14.28C92.5632 14.0453 93.0539 13.928 93.6405 13.928C94.3125 13.928 94.8405 14.0773 95.2245 14.376C95.6085 14.664 95.8699 15.0586 96.0085 15.56L96.5045 17.256C96.5472 17.4053 96.6112 17.5173 96.6965 17.592C96.7819 17.656 96.8832 17.688 97.0005 17.688C97.1392 17.688 97.2459 17.6453 97.3205 17.56C97.3952 17.4746 97.4325 17.352 97.4325 17.192V13.576C97.4325 13.128 97.3152 12.7653 97.0805 12.488C96.8459 12.2 96.5259 11.9866 96.1205 11.848C95.7152 11.7093 95.2405 11.64 94.6965 11.64C94.1952 11.64 93.6512 11.6986 93.0645 11.816C92.4779 11.9226 91.9499 12.0826 91.4805 12.296V10.712C91.7685 10.584 92.1045 10.472 92.4885 10.376C92.8832 10.2693 93.3045 10.1893 93.7525 10.136C94.2005 10.072 94.6485 10.04 95.0965 10.04C95.9179 10.04 96.6539 10.1573 97.3045 10.392C97.9552 10.616 98.4672 10.9733 98.8405 11.464C99.2245 11.944 99.4165 12.568 99.4165 13.336V17.048C99.4165 17.752 99.2032 18.28 98.7765 18.632C98.3499 18.984 97.7899 19.16 97.0965 19.16C96.4992 19.16 96.0299 19.032 95.6885 18.776C95.3579 18.5093 95.1179 18.1253 94.9685 17.624L94.5365 16.216C94.4619 15.9813 94.3445 15.8 94.1845 15.672C94.0352 15.544 93.8432 15.48 93.6085 15.48C93.3312 15.48 93.1072 15.576 92.9365 15.768C92.7765 15.9493 92.6965 16.2373 92.6965 16.632C92.6965 16.984 92.7605 17.2506 92.8885 17.432C93.0272 17.6026 93.2352 17.688 93.5125 17.688C93.5979 17.688 93.6832 17.6826 93.7685 17.672C93.8539 17.6506 93.9339 17.6293 94.0085 17.608L94.3285 18.952C94.1899 19.0053 94.0192 19.0533 93.8165 19.096C93.6245 19.1386 93.4112 19.16 93.1765 19.16Z" fill="#1C231F"/>
<path d="M92.7118 8.80796C92.6264 8.65862 92.5571 8.47196 92.5038 8.24796C92.4504 8.02396 92.4238 7.81062 92.4238 7.60796C92.4238 7.15996 92.5624 6.80796 92.8398 6.55196C93.1171 6.29596 93.5491 6.16796 94.1358 6.16796H99.2558V7.55996H94.7758C94.5518 7.55996 94.3864 7.62396 94.2798 7.75196C94.1731 7.86929 94.1198 8.01862 94.1198 8.19996C94.1198 8.29596 94.1358 8.39729 94.1678 8.50396C94.1891 8.61062 94.2211 8.71196 94.2638 8.80796H92.7118Z" fill="#1C231F"/>
<path d="M95.7153 5.05596V2.39996H97.3153V5.05596H95.7153Z" fill="#1C231F"/>
<path d="M102.9 19V12.52C102.9 12.1893 102.815 11.9546 102.644 11.816C102.473 11.6773 102.233 11.608 101.924 11.608C101.711 11.608 101.508 11.6346 101.316 11.688C101.124 11.7306 100.953 11.784 100.804 11.848L100.548 10.408C100.793 10.3013 101.092 10.216 101.444 10.152C101.796 10.0773 102.159 10.04 102.532 10.04C103.3 10.04 103.892 10.216 104.308 10.568C104.735 10.9093 104.948 11.4533 104.948 12.2V19H102.9Z" fill="#1C231F"/>
<path d="M107.759 19.176C107.503 19.176 107.253 19.144 107.007 19.08C106.762 19.0266 106.533 18.952 106.319 18.856L106.607 17.496C106.703 17.528 106.799 17.5546 106.895 17.576C106.991 17.5866 107.082 17.592 107.167 17.592C107.338 17.592 107.471 17.5493 107.567 17.464C107.663 17.3786 107.711 17.2346 107.711 17.032V10.2H109.759V15.88C109.759 16.3066 109.834 16.6426 109.983 16.888C110.133 17.1333 110.325 17.3093 110.559 17.416C110.794 17.512 111.045 17.56 111.311 17.56C111.845 17.56 112.234 17.4053 112.479 17.096C112.735 16.7866 112.863 16.344 112.863 15.768V10.2H114.895V15.912C114.895 16.584 114.778 17.1653 114.543 17.656C114.309 18.136 113.962 18.5093 113.503 18.776C113.045 19.032 112.469 19.16 111.775 19.16C111.263 19.16 110.81 19.08 110.415 18.92C110.031 18.7493 109.685 18.4826 109.375 18.12H108.783L109.343 17.608V17.928C109.343 18.3226 109.199 18.632 108.911 18.856C108.634 19.0693 108.25 19.176 107.759 19.176Z" fill="#1C231F"/>
<path d="M112.356 23.704C111.588 23.704 111.017 23.5493 110.644 23.24C110.271 22.9413 110.084 22.5573 110.084 22.088V21.848C110.084 21.7413 110.063 21.6613 110.02 21.608C109.977 21.5546 109.897 21.528 109.78 21.528C109.727 21.528 109.663 21.5333 109.588 21.544C109.513 21.5546 109.455 21.5653 109.412 21.576L109.268 20.408C109.449 20.3333 109.657 20.2693 109.892 20.216C110.116 20.1733 110.313 20.152 110.484 20.152C110.921 20.152 111.231 20.2586 111.412 20.472C111.593 20.6853 111.684 20.9626 111.684 21.304V21.88C111.684 22.0506 111.737 22.1946 111.844 22.312C111.94 22.4293 112.121 22.488 112.388 22.488C112.644 22.488 112.831 22.4293 112.948 22.312C113.055 22.2053 113.108 22.056 113.108 21.864V20.232H114.74V21.976C114.74 22.488 114.548 22.904 114.164 23.224C113.769 23.544 113.167 23.704 112.356 23.704Z" fill="#1C231F"/>
<path d="M118.128 19.16L116.64 18.04C116.95 17.7733 117.19 17.464 117.36 17.112C117.531 16.7493 117.616 16.28 117.616 15.704V12.2C117.616 11.9866 117.568 11.8373 117.472 11.752C117.387 11.656 117.254 11.608 117.072 11.608C116.966 11.608 116.864 11.624 116.768 11.656C116.683 11.6773 116.598 11.6986 116.512 11.72L116.208 10.36C116.443 10.2533 116.71 10.1733 117.008 10.12C117.318 10.0666 117.595 10.04 117.84 10.04C118.459 10.04 118.912 10.2106 119.2 10.552C119.499 10.8933 119.648 11.3946 119.648 12.056V15.88C119.648 16.232 119.707 16.536 119.824 16.792C119.952 17.0373 120.134 17.2293 120.368 17.368C120.603 17.496 120.88 17.56 121.2 17.56C121.702 17.56 122.086 17.4 122.352 17.08C122.619 16.76 122.752 16.3226 122.752 15.768V10.2H124.8V15.864C124.8 16.5253 124.683 17.1013 124.448 17.592C124.214 18.0826 123.862 18.4666 123.392 18.744C122.934 19.0213 122.363 19.16 121.68 19.16C121.094 19.16 120.587 19.0586 120.16 18.856C119.734 18.6426 119.36 18.3226 119.04 17.896H118.992C118.896 18.1306 118.768 18.3653 118.608 18.6C118.459 18.8346 118.299 19.0213 118.128 19.16Z" fill="#1C231F"/>
<path d="M128.947 19.16C128.381 19.16 127.901 19.016 127.507 18.728C127.123 18.4293 126.931 17.9173 126.931 17.192V10.2H128.979V17.048C128.979 17.2506 129.021 17.4 129.107 17.496C129.203 17.5813 129.357 17.624 129.571 17.624C129.667 17.624 129.763 17.6186 129.859 17.608C129.955 17.5866 130.056 17.56 130.163 17.528L130.435 18.824C130.179 18.9413 129.923 19.0266 129.667 19.08C129.421 19.1333 129.181 19.16 128.947 19.16Z" fill="#1C231F"/>
<path d="M137.584 21.88V18.712C137.584 18.5306 137.542 18.4026 137.456 18.328C137.382 18.2533 137.27 18.216 137.12 18.216C136.939 18.216 136.731 18.264 136.496 18.36C136.272 18.456 136.022 18.568 135.744 18.696C135.478 18.8133 135.179 18.92 134.848 19.016C134.518 19.112 134.16 19.16 133.776 19.16C133.382 19.16 133.008 19.096 132.656 18.968C132.304 18.8293 132.022 18.616 131.808 18.328C131.595 18.04 131.488 17.6666 131.488 17.208C131.488 16.792 131.579 16.44 131.76 16.152C131.942 15.8533 132.192 15.5973 132.512 15.384C132.832 15.1706 133.195 14.984 133.6 14.824C134.006 14.6533 134.438 14.4826 134.896 14.312C135.451 14.1093 135.91 13.9386 136.272 13.8C136.646 13.6613 136.928 13.512 137.12 13.352C137.312 13.1813 137.408 12.9626 137.408 12.696C137.408 12.44 137.328 12.232 137.168 12.072C137.008 11.9013 136.784 11.7786 136.496 11.704C136.219 11.6186 135.894 11.576 135.52 11.576C135.147 11.576 134.811 11.6186 134.512 11.704C134.214 11.7893 133.979 11.9226 133.808 12.104C133.638 12.2746 133.552 12.4933 133.552 12.76C133.552 12.8986 133.574 13.016 133.616 13.112C133.67 13.208 133.734 13.304 133.808 13.4L132.272 14.168C132.07 14.0186 131.904 13.8106 131.776 13.544C131.659 13.2666 131.6 12.968 131.6 12.648C131.6 12.1786 131.739 11.7466 132.016 11.352C132.294 10.9466 132.72 10.6266 133.296 10.392C133.883 10.1573 134.63 10.04 135.536 10.04C136.443 10.04 137.179 10.1626 137.744 10.408C138.32 10.6426 138.736 10.9573 138.992 11.352C139.259 11.7466 139.392 12.1893 139.392 12.68C139.392 13.0853 139.302 13.432 139.12 13.72C138.939 14.008 138.688 14.264 138.368 14.488C138.048 14.7013 137.675 14.8986 137.248 15.08C136.832 15.2506 136.384 15.4213 135.904 15.592C135.488 15.7413 135.094 15.8853 134.72 16.024C134.347 16.152 134.043 16.296 133.808 16.456C133.584 16.616 133.472 16.808 133.472 17.032C133.472 17.192 133.526 17.3253 133.632 17.432C133.75 17.5386 133.904 17.592 134.096 17.592C134.32 17.592 134.566 17.5386 134.832 17.432C135.099 17.3253 135.387 17.2026 135.696 17.064C136.006 16.9253 136.326 16.8026 136.656 16.696C136.998 16.5893 137.344 16.536 137.696 16.536C138.048 16.536 138.352 16.6053 138.608 16.744C138.864 16.872 139.062 17.0746 139.2 17.352C139.339 17.6186 139.408 17.9706 139.408 18.408V21.88H137.584Z" fill="#1C231F"/>
<path d="M134.234 8.96796C133.797 8.96796 133.392 8.90396 133.018 8.77596C132.634 8.63729 132.325 8.43996 132.09 8.18396C131.856 7.91729 131.738 7.58662 131.738 7.19196C131.738 6.73329 131.904 6.34396 132.234 6.02396C132.554 5.70396 132.992 5.45862 133.546 5.28796C134.09 5.11729 134.704 5.03196 135.386 5.03196C136.112 5.03196 136.752 5.12262 137.306 5.30396C137.861 5.47462 138.298 5.70929 138.618 6.00796C138.928 6.29596 139.082 6.63196 139.082 7.01596C139.082 7.19729 139.04 7.35196 138.954 7.47996C138.869 7.60796 138.741 7.72529 138.57 7.83196V7.86396C138.688 7.83196 138.842 7.80529 139.034 7.78396C139.216 7.76262 139.37 7.75196 139.498 7.75196H139.866V8.96796H136.602L136.346 8.02396C136.421 8.02396 136.522 8.01329 136.65 7.99196C136.778 7.95996 136.906 7.91729 137.034 7.86396C137.162 7.79996 137.274 7.71996 137.37 7.62396C137.456 7.51729 137.498 7.38396 137.498 7.22396C137.498 6.92529 137.317 6.69062 136.954 6.51996C136.592 6.33862 136.074 6.24796 135.402 6.24796C134.741 6.24796 134.234 6.33862 133.882 6.51996C133.52 6.69062 133.338 6.92529 133.338 7.22396C133.338 7.38396 133.386 7.51729 133.482 7.62396C133.568 7.71996 133.674 7.79996 133.802 7.86396C133.93 7.91729 134.058 7.95996 134.186 7.99196C134.314 8.01329 134.416 8.02396 134.49 8.02396L134.234 8.96796ZM135.418 7.95996C135.216 7.95996 135.05 7.90129 134.922 7.78396C134.794 7.66662 134.73 7.50662 134.73 7.30396C134.73 7.09062 134.794 6.92529 134.922 6.80796C135.05 6.69062 135.216 6.63196 135.418 6.63196C135.632 6.63196 135.797 6.69062 135.914 6.80796C136.032 6.92529 136.09 7.09062 136.09 7.30396C136.09 7.50662 136.032 7.66662 135.914 7.78396C135.797 7.90129 135.632 7.95996 135.418 7.95996Z" fill="#1C231F"/>
<path d="M134.939 4.05596V3.14396C135.28 3.11196 135.563 3.03196 135.787 2.90396C136 2.76529 136.107 2.59996 136.107 2.40796C136.107 2.26929 136.059 2.16796 135.963 2.10396C135.867 2.03996 135.744 2.00796 135.595 2.00796C135.413 2.00796 135.243 2.05062 135.083 2.13596L134.747 1.22396C134.928 1.10662 135.147 1.01596 135.403 0.951958C135.659 0.887957 135.92 0.855957 136.187 0.855957C136.656 0.855957 137.019 0.957291 137.275 1.15996C137.52 1.35196 137.643 1.61862 137.643 1.95996C137.643 2.15196 137.611 2.32262 137.547 2.47196C137.472 2.61062 137.376 2.72796 137.259 2.82396H140.027V4.05596H134.939Z" fill="#1C231F"/>
<path d="M145.095 19.16C144.348 19.16 143.676 19.0533 143.079 18.84C142.492 18.616 142.034 18.3066 141.703 17.912C141.372 17.5066 141.207 17.032 141.207 16.488C141.207 16.264 141.234 16.0666 141.287 15.896C141.351 15.7253 141.426 15.576 141.511 15.448L143.111 15.928C143.079 16.0026 143.052 16.0826 143.031 16.168C143.02 16.2426 143.015 16.312 143.015 16.376C143.015 16.6213 143.111 16.84 143.303 17.032C143.506 17.2133 143.767 17.352 144.087 17.448C144.407 17.544 144.738 17.592 145.079 17.592C145.868 17.592 146.455 17.3413 146.839 16.84C147.234 16.328 147.431 15.592 147.431 14.632C147.431 13.6293 147.223 12.8773 146.807 12.376C146.391 11.8746 145.762 11.624 144.919 11.624C144.396 11.624 143.959 11.7253 143.607 11.928C143.255 12.1306 143.079 12.4133 143.079 12.776C143.079 13.1066 143.234 13.368 143.543 13.56C143.863 13.752 144.306 13.848 144.871 13.848C145.148 13.848 145.431 13.8266 145.719 13.784C146.007 13.7306 146.29 13.6506 146.567 13.544C146.855 13.4266 147.111 13.288 147.335 13.128L147.911 14.312C147.634 14.5253 147.319 14.7066 146.967 14.856C146.626 14.9946 146.258 15.1013 145.863 15.176C145.468 15.2506 145.063 15.288 144.647 15.288C143.57 15.288 142.727 15.0586 142.119 14.6C141.511 14.1306 141.207 13.5066 141.207 12.728C141.207 12.2053 141.346 11.7413 141.623 11.336C141.911 10.9306 142.332 10.616 142.887 10.392C143.452 10.1573 144.13 10.04 144.919 10.04C145.804 10.04 146.583 10.2 147.255 10.52C147.938 10.84 148.471 11.3413 148.855 12.024C149.239 12.696 149.431 13.576 149.431 14.664C149.431 15.6986 149.25 16.552 148.887 17.224C148.535 17.8853 148.034 18.376 147.383 18.696C146.732 19.0053 145.97 19.16 145.095 19.16Z" fill="#1C231F"/>
<path d="M154.476 19.16C153.74 19.16 153.089 19.0533 152.524 18.84C151.959 18.616 151.516 18.296 151.196 17.88C150.876 17.464 150.716 16.968 150.716 16.392C150.716 16.136 150.748 15.9066 150.812 15.704C150.876 15.4906 150.961 15.2933 151.068 15.112L152.7 15.64C152.647 15.7253 152.604 15.8213 152.572 15.928C152.551 16.0346 152.54 16.152 152.54 16.28C152.54 16.664 152.695 16.9786 153.004 17.224C153.324 17.4586 153.772 17.576 154.348 17.576C155.063 17.576 155.617 17.352 156.012 16.904C156.407 16.4453 156.604 15.6933 156.604 14.648C156.604 13.8906 156.497 13.2933 156.284 12.856C156.071 12.4186 155.767 12.1093 155.372 11.928C154.988 11.736 154.524 11.64 153.98 11.64C153.5 11.64 153.02 11.6986 152.54 11.816C152.06 11.9226 151.575 12.088 151.084 12.312V10.696C151.511 10.504 151.996 10.3493 152.54 10.232C153.095 10.104 153.687 10.04 154.316 10.04C154.977 10.04 155.569 10.1253 156.092 10.296C156.625 10.456 157.079 10.712 157.452 11.064C157.836 11.416 158.129 11.88 158.332 12.456C158.535 13.032 158.636 13.736 158.636 14.568C158.636 15.6773 158.46 16.568 158.108 17.24C157.756 17.912 157.271 18.4026 156.652 18.712C156.033 19.0106 155.308 19.16 154.476 19.16Z" fill="#1C231F"/>
<path d="M155.185 8.80796C154.599 8.80796 154.167 8.67996 153.889 8.42396C153.612 8.16796 153.473 7.81596 153.473 7.36796C153.473 7.16529 153.5 6.95196 153.553 6.72796C153.607 6.50396 153.676 6.31729 153.761 6.16796H155.313C155.271 6.26396 155.239 6.36529 155.217 6.47196C155.185 6.57862 155.169 6.67996 155.169 6.77596C155.169 6.94662 155.223 7.10129 155.329 7.23996C155.425 7.36796 155.591 7.43196 155.825 7.43196H160.001V8.80796H155.185Z" fill="#1C231F"/>
<path d="M161.66 19.16L160.172 18.04C160.481 17.7733 160.721 17.464 160.892 17.112C161.062 16.7493 161.148 16.28 161.148 15.704V12.2C161.148 11.9866 161.1 11.8373 161.004 11.752C160.918 11.656 160.785 11.608 160.604 11.608C160.497 11.608 160.396 11.624 160.3 11.656C160.214 11.6773 160.129 11.6986 160.044 11.72L159.74 10.36C159.974 10.2533 160.241 10.1733 160.54 10.12C160.849 10.0666 161.126 10.04 161.372 10.04C161.99 10.04 162.444 10.2106 162.732 10.552C163.03 10.8933 163.18 11.3946 163.18 12.056V15.88C163.18 16.232 163.238 16.536 163.356 16.792C163.484 17.0373 163.665 17.2293 163.9 17.368C164.134 17.496 164.412 17.56 164.732 17.56C165.233 17.56 165.617 17.4 165.884 17.08C166.15 16.76 166.284 16.3226 166.284 15.768V10.2H168.332V15.864C168.332 16.5253 168.214 17.1013 167.98 17.592C167.745 18.0826 167.393 18.4666 166.924 18.744C166.465 19.0213 165.894 19.16 165.212 19.16C164.625 19.16 164.118 19.0586 163.692 18.856C163.265 18.6426 162.892 18.3226 162.572 17.896H162.524C162.428 18.1306 162.3 18.3653 162.14 18.6C161.99 18.8346 161.83 19.0213 161.66 19.16Z" fill="#1C231F"/>
<path d="M172.398 19.16C171.641 19.16 171.081 18.9306 170.718 18.472C170.355 18.0133 170.174 17.448 170.174 16.776C170.174 16.296 170.265 15.8693 170.446 15.496C170.627 15.1226 170.91 14.8293 171.294 14.616C171.678 14.4026 172.174 14.296 172.782 14.296C173.454 14.296 173.998 14.4293 174.414 14.696C174.841 14.9626 175.123 15.3466 175.262 15.848L175.678 17.256C175.731 17.4053 175.801 17.5173 175.886 17.592C175.982 17.656 176.089 17.688 176.206 17.688C176.345 17.688 176.446 17.6453 176.51 17.56C176.585 17.4746 176.622 17.352 176.622 17.192V13.592C176.622 13.0373 176.494 12.5893 176.238 12.248C175.982 11.9066 175.63 11.6613 175.182 11.512C174.734 11.352 174.222 11.272 173.646 11.272C173.155 11.272 172.755 11.3253 172.446 11.432C172.137 11.528 171.982 11.6826 171.982 11.896C171.982 12.0346 172.051 12.152 172.19 12.248C172.339 12.3333 172.537 12.3973 172.782 12.44C173.027 12.4826 173.289 12.504 173.566 12.504C174.323 12.504 174.953 12.3866 175.454 12.152C175.966 11.9066 176.345 11.5973 176.59 11.224C176.846 10.8506 176.974 10.4613 176.974 10.056V9.92796H178.75V10.072C178.75 10.7333 178.526 11.3413 178.078 11.896C177.641 12.44 177.033 12.8773 176.254 13.208C175.475 13.528 174.59 13.688 173.598 13.688C172.947 13.688 172.377 13.6186 171.886 13.48C171.395 13.3413 171.011 13.1333 170.734 12.856C170.467 12.5786 170.334 12.2426 170.334 11.848C170.334 11.3253 170.606 10.8933 171.15 10.552C171.705 10.2106 172.574 10.04 173.758 10.04C174.857 10.04 175.763 10.1893 176.478 10.488C177.203 10.7866 177.742 11.1973 178.094 11.72C178.446 12.232 178.622 12.824 178.622 13.496V17.048C178.622 17.752 178.419 18.28 178.014 18.632C177.609 18.984 177.054 19.16 176.35 19.16C175.774 19.16 175.305 19.0426 174.942 18.808C174.59 18.5733 174.345 18.2426 174.206 17.816L173.774 16.408C173.71 16.1733 173.587 15.9973 173.406 15.88C173.235 15.752 173.022 15.688 172.766 15.688C172.478 15.688 172.254 15.768 172.094 15.928C171.934 16.088 171.854 16.3493 171.854 16.712C171.854 17.0213 171.918 17.2613 172.046 17.432C172.185 17.6026 172.398 17.688 172.686 17.688C172.761 17.688 172.835 17.6826 172.91 17.672C172.995 17.6506 173.081 17.6293 173.166 17.608L173.486 18.952C173.347 19.0053 173.182 19.0533 172.99 19.096C172.798 19.1386 172.601 19.16 172.398 19.16Z" fill="#1C231F"/>
<path d="M174.311 8.80796V8.07196C174.535 8.02929 174.743 7.96529 174.935 7.87996C175.116 7.79462 175.266 7.68262 175.383 7.54396C175.49 7.39462 175.543 7.22396 175.543 7.03196C175.543 6.86129 175.495 6.72796 175.399 6.63196C175.292 6.53596 175.148 6.48796 174.967 6.48796C174.882 6.48796 174.796 6.49862 174.711 6.51996C174.615 6.54129 174.53 6.57329 174.455 6.61596L174.151 5.70396C174.311 5.59729 174.519 5.51196 174.775 5.44796C175.02 5.37329 175.292 5.33596 175.591 5.33596C176.092 5.33596 176.476 5.44796 176.743 5.67196C177.01 5.89596 177.143 6.19996 177.143 6.58396C177.143 6.76529 177.116 6.93062 177.063 7.07996C176.999 7.22929 176.919 7.35196 176.823 7.44796H179.783V8.80796H174.311Z" fill="#1C231F"/>
<path d="M182.134 19V12.52C182.134 12.1893 182.049 11.9546 181.878 11.816C181.708 11.6773 181.468 11.608 181.158 11.608C180.945 11.608 180.742 11.6346 180.55 11.688C180.358 11.7306 180.188 11.784 180.038 11.848L179.782 10.408C180.028 10.3013 180.326 10.216 180.678 10.152C181.03 10.0773 181.393 10.04 181.766 10.04C182.534 10.04 183.126 10.216 183.542 10.568C183.969 10.9093 184.182 11.4533 184.182 12.2V19H182.134Z" fill="#1C231F"/>
<path d="M187.314 21.88C186.834 21.88 186.38 21.8266 185.954 21.72C185.538 21.624 185.186 21.512 184.898 21.384V19.784C185.228 19.9333 185.559 20.056 185.89 20.152C186.231 20.248 186.562 20.296 186.882 20.296C187.372 20.296 187.735 20.1786 187.97 19.944C188.204 19.72 188.322 19.3893 188.322 18.952V12.536C188.322 12.2373 188.21 12.0133 187.986 11.864C187.772 11.7146 187.49 11.64 187.138 11.64C186.946 11.64 186.748 11.6613 186.546 11.704C186.354 11.7466 186.172 11.8053 186.002 11.88L185.634 10.552C185.964 10.3813 186.316 10.2533 186.69 10.168C187.063 10.0826 187.431 10.04 187.794 10.04C188.284 10.04 188.722 10.12 189.106 10.28C189.5 10.4293 189.804 10.6533 190.018 10.952C190.242 11.24 190.354 11.6026 190.354 12.04V19.112C190.354 20.0186 190.082 20.7066 189.538 21.176C189.004 21.6453 188.263 21.88 187.314 21.88Z" fill="#1C231F"/>
<path d="M195.582 19.16C194.771 19.16 194.115 18.9786 193.614 18.616C193.112 18.2426 192.75 17.7146 192.526 17.032C192.302 16.3493 192.19 15.544 192.19 14.616C192.19 13.5493 192.307 12.68 192.542 12.008C192.787 11.336 193.118 10.84 193.534 10.52C193.96 10.2 194.43 10.04 194.942 10.04C195.358 10.04 195.704 10.1306 195.982 10.312C196.259 10.4933 196.456 10.7333 196.574 11.032H196.622C196.782 10.7333 197.016 10.4933 197.326 10.312C197.646 10.1306 198.03 10.04 198.478 10.04C199.224 10.04 199.768 10.2906 200.11 10.792C200.462 11.2826 200.638 11.9546 200.638 12.808V19H198.59V12.888C198.59 12.4933 198.531 12.1893 198.414 11.976C198.307 11.752 198.126 11.64 197.87 11.64C197.635 11.64 197.454 11.736 197.326 11.928C197.198 12.1093 197.118 12.3493 197.086 12.648H196.11C196.078 12.3386 195.998 12.0933 195.87 11.912C195.752 11.7306 195.587 11.64 195.374 11.64C195.043 11.64 194.766 11.8693 194.542 12.328C194.328 12.7866 194.222 13.5226 194.222 14.536C194.222 15.2506 194.28 15.832 194.398 16.28C194.526 16.728 194.712 17.0586 194.958 17.272C195.214 17.4853 195.544 17.592 195.95 17.592C196.078 17.592 196.206 17.5813 196.334 17.56C196.472 17.5386 196.6 17.5066 196.718 17.464L196.974 18.92C196.76 19.0053 196.536 19.064 196.302 19.096C196.078 19.1386 195.838 19.16 195.582 19.16Z" fill="#1C231F"/>
<path d="M197.467 8.80796C196.88 8.80796 196.448 8.67996 196.171 8.42396C195.893 8.16796 195.755 7.81596 195.755 7.36796C195.755 7.16529 195.781 6.95196 195.835 6.72796C195.888 6.50396 195.957 6.31729 196.043 6.16796H197.595C197.552 6.26396 197.52 6.36529 197.499 6.47196C197.467 6.57862 197.451 6.67996 197.451 6.77596C197.451 6.94662 197.504 7.10129 197.611 7.23996C197.707 7.36796 197.872 7.43196 198.107 7.43196H202.283V8.80796H197.467Z" fill="#1C231F"/>
<path d="M196.939 6.05596V5.14396C197.28 5.11196 197.563 5.03196 197.787 4.90396C198 4.76529 198.107 4.59996 198.107 4.40796C198.107 4.26929 198.059 4.16796 197.963 4.10396C197.867 4.03996 197.744 4.00796 197.595 4.00796C197.413 4.00796 197.243 4.05062 197.083 4.13596L196.747 3.22396C196.928 3.10662 197.147 3.01596 197.403 2.95196C197.659 2.88796 197.92 2.85596 198.187 2.85596C198.656 2.85596 199.019 2.95729 199.275 3.15996C199.52 3.35196 199.643 3.61862 199.643 3.95996C199.643 4.15196 199.611 4.32262 199.547 4.47196C199.472 4.61062 199.376 4.72796 199.259 4.82396H202.027V6.05596H196.939Z" fill="#1C231F"/>
<path d="M203.767 21.88C203.287 21.88 202.833 21.8266 202.407 21.72C201.991 21.624 201.639 21.512 201.351 21.384V19.784C201.681 19.9333 202.012 20.056 202.343 20.152C202.684 20.248 203.015 20.296 203.335 20.296C203.825 20.296 204.188 20.1786 204.423 19.944C204.657 19.72 204.775 19.3893 204.775 18.952V12.536C204.775 12.2373 204.663 12.0133 204.439 11.864C204.225 11.7146 203.943 11.64 203.591 11.64C203.399 11.64 203.201 11.6613 202.999 11.704C202.807 11.7466 202.625 11.8053 202.455 11.88L202.087 10.552C202.417 10.3813 202.769 10.2533 203.143 10.168C203.516 10.0826 203.884 10.04 204.247 10.04C204.737 10.04 205.175 10.12 205.559 10.28C205.953 10.4293 206.257 10.6533 206.471 10.952C206.695 11.24 206.807 11.6026 206.807 12.04V19.112C206.807 20.0186 206.535 20.7066 205.991 21.176C205.457 21.6453 204.716 21.88 203.767 21.88Z" fill="#1C231F"/>
<path d="M3.58403 51.16C2.9227 51.16 2.38936 51.0426 1.98403 50.808C1.58936 50.5733 1.30136 50.2693 1.12003 49.896C0.949365 49.5226 0.864031 49.1333 0.864031 48.728C0.864031 48.4186 0.912031 48.1306 1.00803 47.864C1.10403 47.5866 1.2587 47.3466 1.47203 47.144C1.69603 46.9306 1.9787 46.7706 2.32003 46.664V46.616C2.02136 46.5093 1.76003 46.3706 1.53603 46.2C1.3227 46.0186 1.15736 45.8 1.04003 45.544C0.922698 45.2773 0.864031 44.9786 0.864031 44.648C0.864031 43.8586 1.20003 43.2293 1.87203 42.76C2.5547 42.28 3.54136 42.04 4.83203 42.04C6.08003 42.04 7.0347 42.296 7.69603 42.808C8.35737 43.32 8.68803 44.152 8.68803 45.304V51H6.64003V45.16C6.64003 44.84 6.57603 44.568 6.44803 44.344C6.32003 44.12 6.11203 43.9493 5.82403 43.832C5.5467 43.704 5.18403 43.64 4.73603 43.64C4.35203 43.64 4.01603 43.688 3.72803 43.784C3.4507 43.8693 3.23736 44.0026 3.08803 44.184C2.94936 44.3546 2.88003 44.5733 2.88003 44.84C2.88003 45.192 3.01336 45.4693 3.28003 45.672C3.5467 45.8746 3.90403 45.976 4.35203 45.976H4.86403V47.304H4.35203C4.05336 47.304 3.79203 47.3413 3.56803 47.416C3.3547 47.4906 3.18403 47.6133 3.05603 47.784C2.9387 47.9546 2.88003 48.1786 2.88003 48.456C2.88003 48.7973 2.9707 49.0693 3.15203 49.272C3.34403 49.464 3.62136 49.56 3.98403 49.56C4.14403 49.56 4.2987 49.544 4.44803 49.512C4.60803 49.48 4.7467 49.448 4.86403 49.416L5.20003 50.888C5.00803 50.9733 4.7627 51.0373 4.46403 51.08C4.16536 51.1333 3.87203 51.16 3.58403 51.16Z" fill="#1C231F"/>
<path d="M16.7093 53.88V50.712C16.7093 50.5306 16.6666 50.4026 16.5813 50.328C16.5066 50.2533 16.3946 50.216 16.2453 50.216C16.0639 50.216 15.8559 50.264 15.6213 50.36C15.3973 50.456 15.1466 50.568 14.8693 50.696C14.6026 50.8133 14.3039 50.92 13.9733 51.016C13.6426 51.112 13.2853 51.16 12.9013 51.16C12.5066 51.16 12.1333 51.096 11.7813 50.968C11.4293 50.8293 11.1466 50.616 10.9333 50.328C10.7199 50.04 10.6133 49.6666 10.6133 49.208C10.6133 48.792 10.7039 48.44 10.8853 48.152C11.0666 47.8533 11.3173 47.5973 11.6373 47.384C11.9573 47.1706 12.3199 46.984 12.7253 46.824C13.1306 46.6533 13.5626 46.4826 14.0213 46.312C14.5759 46.1093 15.0346 45.9386 15.3973 45.8C15.7706 45.6613 16.0533 45.512 16.2453 45.352C16.4373 45.1813 16.5333 44.9626 16.5333 44.696C16.5333 44.44 16.4533 44.232 16.2933 44.072C16.1333 43.9013 15.9093 43.7786 15.6213 43.704C15.3439 43.6186 15.0186 43.576 14.6453 43.576C14.2719 43.576 13.9359 43.6186 13.6373 43.704C13.3386 43.7893 13.1039 43.9226 12.9333 44.104C12.7626 44.2746 12.6773 44.4933 12.6773 44.76C12.6773 44.8986 12.6986 45.016 12.7413 45.112C12.7946 45.208 12.8586 45.304 12.9333 45.4L11.3973 46.168C11.1946 46.0186 11.0293 45.8106 10.9013 45.544C10.7839 45.2666 10.7253 44.968 10.7253 44.648C10.7253 44.1786 10.8639 43.7466 11.1413 43.352C11.4186 42.9466 11.8453 42.6266 12.4213 42.392C13.0079 42.1573 13.7546 42.04 14.6613 42.04C15.5679 42.04 16.3039 42.1626 16.8693 42.408C17.4453 42.6426 17.8613 42.9573 18.1173 43.352C18.3839 43.7466 18.5173 44.1893 18.5173 44.68C18.5173 45.0853 18.4266 45.432 18.2453 45.72C18.0639 46.008 17.8133 46.264 17.4933 46.488C17.1733 46.7013 16.7999 46.8986 16.3733 47.08C15.9573 47.2506 15.5093 47.4213 15.0293 47.592C14.6133 47.7413 14.2186 47.8853 13.8453 48.024C13.4719 48.152 13.1679 48.296 12.9333 48.456C12.7093 48.616 12.5973 48.808 12.5973 49.032C12.5973 49.192 12.6506 49.3253 12.7573 49.432C12.8746 49.5386 13.0293 49.592 13.2213 49.592C13.4453 49.592 13.6906 49.5386 13.9573 49.432C14.2239 49.3253 14.5119 49.2026 14.8213 49.064C15.1306 48.9253 15.4506 48.8026 15.7813 48.696C16.1226 48.5893 16.4693 48.536 16.8213 48.536C17.1733 48.536 17.4773 48.6053 17.7333 48.744C17.9893 48.872 18.1866 49.0746 18.3253 49.352C18.4639 49.6186 18.5333 49.9706 18.5333 50.408V53.88H16.7093Z" fill="#1C231F"/>
<path d="M24.412 51.16C23.0787 51.16 22.0974 50.8453 21.468 50.216C20.8494 49.576 20.54 48.6746 20.54 47.512V42.2H22.588V47.72C22.588 48.3066 22.732 48.76 23.02 49.08C23.3187 49.4 23.7827 49.56 24.412 49.56C25.0307 49.56 25.484 49.4 25.772 49.08C26.06 48.76 26.204 48.3066 26.204 47.72V39.576H28.236V47.512C28.236 48.6746 27.9267 49.576 27.308 50.216C26.6894 50.8453 25.724 51.16 24.412 51.16Z" fill="#1C231F"/>
<path d="M34.2714 51.16C32.9381 51.16 31.9567 50.8453 31.3274 50.216C30.7087 49.576 30.3994 48.6746 30.3994 47.512V42.2H32.4474V47.72C32.4474 48.3066 32.5914 48.76 32.8794 49.08C33.1781 49.4 33.6421 49.56 34.2714 49.56C34.8901 49.56 35.3434 49.4 35.6314 49.08C35.9194 48.76 36.0634 48.3066 36.0634 47.72V39.576H38.0954V47.512C38.0954 48.6746 37.7861 49.576 37.1674 50.216C36.5487 50.8453 35.5834 51.16 34.2714 51.16Z" fill="#1C231F"/>
<path d="M42.0828 51.16C41.3574 51.16 40.8081 50.936 40.4348 50.488C40.0721 50.04 39.8908 49.4373 39.8908 48.68C39.8908 48.1253 39.9868 47.6453 40.1788 47.24C40.3814 46.824 40.6801 46.504 41.0748 46.28C41.4694 46.0453 41.9601 45.928 42.5468 45.928C43.2188 45.928 43.7468 46.0773 44.1308 46.376C44.5148 46.664 44.7761 47.0586 44.9148 47.56L45.4108 49.256C45.4534 49.4053 45.5174 49.5173 45.6028 49.592C45.6881 49.656 45.7894 49.688 45.9068 49.688C46.0454 49.688 46.1521 49.6453 46.2268 49.56C46.3014 49.4746 46.3388 49.352 46.3388 49.192V45.576C46.3388 45.128 46.2215 44.7653 45.9868 44.488C45.7521 44.2 45.4321 43.9866 45.0268 43.848C44.6214 43.7093 44.1468 43.64 43.6028 43.64C43.1014 43.64 42.5574 43.6986 41.9708 43.816C41.3841 43.9226 40.8561 44.0826 40.3868 44.296V42.712C40.6748 42.584 41.0108 42.472 41.3948 42.376C41.7895 42.2693 42.2108 42.1893 42.6588 42.136C43.1068 42.072 43.5548 42.04 44.0028 42.04C44.8241 42.04 45.5601 42.1573 46.2108 42.392C46.8614 42.616 47.3734 42.9733 47.7468 43.464C48.1308 43.944 48.3228 44.568 48.3228 45.336V49.048C48.3228 49.752 48.1094 50.28 47.6828 50.632C47.2561 50.984 46.6961 51.16 46.0028 51.16C45.4054 51.16 44.9361 51.032 44.5948 50.776C44.2641 50.5093 44.0241 50.1253 43.8748 49.624L43.4428 48.216C43.3681 47.9813 43.2508 47.8 43.0908 47.672C42.9414 47.544 42.7494 47.48 42.5148 47.48C42.2374 47.48 42.0134 47.576 41.8428 47.768C41.6828 47.9493 41.6028 48.2373 41.6028 48.632C41.6028 48.984 41.6668 49.2506 41.7948 49.432C41.9334 49.6026 42.1414 49.688 42.4188 49.688C42.5041 49.688 42.5894 49.6826 42.6748 49.672C42.7601 49.6506 42.8401 49.6293 42.9148 49.608L43.2348 50.952C43.0961 51.0053 42.9254 51.0533 42.7228 51.096C42.5308 51.1386 42.3174 51.16 42.0828 51.16Z" fill="#1C231F"/>
<path d="M57.0985 51.16C56.3625 51.16 55.7599 50.9253 55.2905 50.456C54.8319 49.9866 54.6025 49.2773 54.6025 48.328V42.2H56.5865V48.472C56.5865 48.8346 56.6665 49.1066 56.8265 49.288C56.9865 49.4693 57.2159 49.56 57.5145 49.56C57.8345 49.56 58.0745 49.4693 58.2345 49.288C58.4052 49.096 58.4905 48.8133 58.4905 48.44V42.2H60.2185V48.44C60.2185 48.8133 60.2985 49.096 60.4585 49.288C60.6292 49.4693 60.8745 49.56 61.1945 49.56C61.4932 49.56 61.7172 49.4693 61.8665 49.288C62.0265 49.1066 62.1065 48.8346 62.1065 48.472V42.2H64.0905V48.328C64.0905 49.2773 63.8612 49.9866 63.4025 50.456C62.9439 50.9253 62.3412 51.16 61.5945 51.16C61.0505 51.16 60.5919 51.0533 60.2185 50.84C59.8452 50.616 59.5732 50.3546 59.4025 50.056H59.3065C59.1252 50.3546 58.8479 50.616 58.4745 50.84C58.1012 51.0533 57.6425 51.16 57.0985 51.16Z" fill="#1C231F"/>
<path d="M59.7799 40.808V40.072C60.0039 40.0293 60.2119 39.9653 60.4039 39.88C60.5852 39.7946 60.7346 39.6826 60.8519 39.544C60.9586 39.3946 61.0119 39.224 61.0119 39.032C61.0119 38.8613 60.9639 38.728 60.8679 38.632C60.7612 38.536 60.6172 38.488 60.4359 38.488C60.3506 38.488 60.2652 38.4986 60.1799 38.52C60.0839 38.5413 59.9986 38.5733 59.9239 38.616L59.6199 37.704C59.7799 37.5973 59.9879 37.512 60.2439 37.448C60.4892 37.3733 60.7612 37.336 61.0599 37.336C61.5612 37.336 61.9452 37.448 62.2119 37.672C62.4786 37.896 62.6119 38.2 62.6119 38.584C62.6119 38.7653 62.5852 38.9306 62.5319 39.08C62.4679 39.2293 62.3879 39.352 62.2919 39.448H65.2519V40.808H59.7799Z" fill="#1C231F"/>
<path d="M69.8919 51.16C69.1452 51.16 68.4732 51.0533 67.8759 50.84C67.2892 50.616 66.8306 50.3066 66.4999 49.912C66.1692 49.5066 66.0039 49.032 66.0039 48.488C66.0039 48.264 66.0306 48.0666 66.0839 47.896C66.1479 47.7253 66.2226 47.576 66.3079 47.448L67.9079 47.928C67.8759 48.0026 67.8492 48.0826 67.8279 48.168C67.8172 48.2426 67.8119 48.312 67.8119 48.376C67.8119 48.6213 67.9079 48.84 68.0999 49.032C68.3026 49.2133 68.5639 49.352 68.8839 49.448C69.2039 49.544 69.5346 49.592 69.8759 49.592C70.6652 49.592 71.2519 49.3413 71.6359 48.84C72.0306 48.328 72.2279 47.592 72.2279 46.632C72.2279 45.6293 72.0199 44.8773 71.6039 44.376C71.1879 43.8746 70.5586 43.624 69.7159 43.624C69.1932 43.624 68.7559 43.7253 68.4039 43.928C68.0519 44.1306 67.8759 44.4133 67.8759 44.776C67.8759 45.1066 68.0306 45.368 68.3399 45.56C68.6599 45.752 69.1026 45.848 69.6679 45.848C69.9452 45.848 70.2279 45.8266 70.5159 45.784C70.8039 45.7306 71.0866 45.6506 71.3639 45.544C71.6519 45.4266 71.9079 45.288 72.1319 45.128L72.7079 46.312C72.4306 46.5253 72.1159 46.7066 71.7639 46.856C71.4226 46.9946 71.0546 47.1013 70.6599 47.176C70.2652 47.2506 69.8599 47.288 69.4439 47.288C68.3666 47.288 67.5239 47.0586 66.9159 46.6C66.3079 46.1306 66.0039 45.5066 66.0039 44.728C66.0039 44.2053 66.1426 43.7413 66.4199 43.336C66.7079 42.9306 67.1292 42.616 67.6839 42.392C68.2492 42.1573 68.9266 42.04 69.7159 42.04C70.6012 42.04 71.3799 42.2 72.0519 42.52C72.7346 42.84 73.2679 43.3413 73.6519 44.024C74.0359 44.696 74.2279 45.576 74.2279 46.664C74.2279 47.6986 74.0466 48.552 73.6839 49.224C73.3319 49.8853 72.8306 50.376 72.1799 50.696C71.5292 51.0053 70.7666 51.16 69.8919 51.16Z" fill="#1C231F"/>
<path d="M76.6968 51.176C76.4408 51.176 76.1901 51.144 75.9448 51.08C75.6994 51.0266 75.4701 50.952 75.2568 50.856L75.5448 49.496C75.6408 49.528 75.7368 49.5546 75.8328 49.576C75.9288 49.5866 76.0194 49.592 76.1048 49.592C76.2755 49.592 76.4088 49.5493 76.5048 49.464C76.6008 49.3786 76.6488 49.2346 76.6488 49.032V42.2H78.6968V47.88C78.6968 48.3066 78.7715 48.6426 78.9208 48.888C79.0701 49.1333 79.2621 49.3093 79.4968 49.416C79.7314 49.512 79.9821 49.56 80.2488 49.56C80.7821 49.56 81.1714 49.4053 81.4168 49.096C81.6728 48.7866 81.8008 48.344 81.8008 47.768V42.2H83.8328V47.912C83.8328 48.584 83.7154 49.1653 83.4808 49.656C83.2461 50.136 82.8994 50.5093 82.4408 50.776C81.9821 51.032 81.4061 51.16 80.7128 51.16C80.2008 51.16 79.7475 51.08 79.3528 50.92C78.9688 50.7493 78.6221 50.4826 78.3128 50.12H77.7208L78.2808 49.608V49.928C78.2808 50.3226 78.1368 50.632 77.8488 50.856C77.5714 51.0693 77.1875 51.176 76.6968 51.176Z" fill="#1C231F"/>
<path d="M89.8339 51.16C88.5006 51.16 87.5192 50.8453 86.8899 50.216C86.2712 49.576 85.9619 48.6746 85.9619 47.512V42.2H88.0099V47.72C88.0099 48.3066 88.1539 48.76 88.4419 49.08C88.7406 49.4 89.2046 49.56 89.8339 49.56C90.4526 49.56 90.9059 49.4 91.1939 49.08C91.4819 48.76 91.6259 48.3066 91.6259 47.72V39.576H93.6579V47.512C93.6579 48.6746 93.3486 49.576 92.7299 50.216C92.1112 50.8453 91.1459 51.16 89.8339 51.16Z" fill="#1C231F"/>
<path d="M97.1013 45.64C96.4506 45.64 95.9813 45.4853 95.6933 45.176C95.4159 44.856 95.2773 44.504 95.2773 44.12C95.2773 44.0026 95.2879 43.8746 95.3093 43.736C95.3306 43.5866 95.3573 43.4426 95.3893 43.304C95.4319 43.1546 95.4799 43.032 95.5333 42.936H97.0853C97.0426 43.0106 97.0053 43.1013 96.9733 43.208C96.952 43.3146 96.9413 43.4266 96.9413 43.544C96.9413 43.6933 96.9839 43.8213 97.0693 43.928C97.1546 44.024 97.2933 44.072 97.4853 44.072H99.8053V45.64H97.1013ZM97.1013 50.392C96.4506 50.392 95.9813 50.2373 95.6933 49.928C95.4159 49.6186 95.2773 49.272 95.2773 48.888C95.2773 48.7706 95.2879 48.6373 95.3093 48.488C95.3306 48.3386 95.3573 48.1946 95.3893 48.056C95.4319 47.9066 95.4799 47.784 95.5333 47.688H97.0853C97.0426 47.7733 97.0053 47.8693 96.9733 47.976C96.952 48.0826 96.9413 48.1946 96.9413 48.312C96.9413 48.4613 96.9839 48.584 97.0693 48.68C97.1546 48.776 97.2933 48.824 97.4853 48.824H99.8053V50.392H97.1013Z" fill="#1C231F"/>
<path d="M104.691 51.16C103.88 51.16 103.224 50.9733 102.723 50.6C102.222 50.2266 101.859 49.7146 101.635 49.064C101.411 48.4026 101.299 47.6506 101.299 46.808C101.299 45.6666 101.475 44.7493 101.827 44.056C102.19 43.352 102.691 42.84 103.331 42.52C103.982 42.2 104.734 42.04 105.587 42.04C106.814 42.04 107.774 42.3386 108.467 42.936C109.171 43.5226 109.523 44.376 109.523 45.496V51H107.491V45.48C107.491 44.904 107.336 44.456 107.027 44.136C106.718 43.8053 106.232 43.64 105.571 43.64C105.08 43.64 104.664 43.7413 104.323 43.944C103.992 44.1466 103.742 44.4773 103.571 44.936C103.411 45.3946 103.331 46.0026 103.331 46.76C103.331 47.3893 103.395 47.9173 103.523 48.344C103.651 48.76 103.843 49.0746 104.099 49.288C104.355 49.4906 104.675 49.592 105.059 49.592C105.187 49.592 105.315 49.5813 105.443 49.56C105.582 49.5386 105.71 49.5066 105.827 49.464L106.083 50.92C105.87 51.0053 105.646 51.064 105.411 51.096C105.187 51.1386 104.947 51.16 104.691 51.16Z" fill="#1C231F"/>
<path d="M106.357 40.808C105.77 40.808 105.338 40.68 105.061 40.424C104.784 40.168 104.645 39.816 104.645 39.368C104.645 39.1653 104.672 38.952 104.725 38.728C104.778 38.504 104.848 38.3173 104.933 38.168H106.485C106.442 38.264 106.41 38.3653 106.389 38.472C106.357 38.5786 106.341 38.68 106.341 38.776C106.341 38.9466 106.394 39.1013 106.501 39.24C106.597 39.368 106.762 39.432 106.997 39.432H111.173V40.808H106.357Z" fill="#1C231F"/>
<path d="M115.473 51.16C114.161 51.16 113.196 50.8453 112.577 50.216C111.959 49.576 111.649 48.6746 111.649 47.512V42.2H113.697V47.72C113.697 48.3066 113.836 48.76 114.113 49.08C114.401 49.4 114.855 49.56 115.473 49.56C116.092 49.56 116.54 49.4 116.817 49.08C117.105 48.76 117.249 48.3066 117.249 47.72V42.2H119.281V47.512C119.281 48.6746 118.972 49.576 118.353 50.216C117.745 50.8453 116.785 51.16 115.473 51.16Z" fill="#1C231F"/>
<path d="M124.279 51.16C123.308 51.16 122.588 50.904 122.119 50.392C121.65 49.88 121.415 49.192 121.415 48.328V42.2H123.399V48.504C123.399 48.8453 123.474 49.1066 123.623 49.288C123.783 49.4693 124.018 49.56 124.327 49.56C124.935 49.56 125.239 49.208 125.239 48.504V44.376C125.239 44.0773 125.186 43.8106 125.079 43.576C124.983 43.3413 124.818 43.1333 124.583 42.952L125.959 42.024C126.151 42.12 126.327 42.2586 126.487 42.44C126.647 42.6213 126.77 42.824 126.855 43.048H126.919C127.154 42.7493 127.442 42.5093 127.783 42.328C128.124 42.136 128.514 42.04 128.951 42.04C129.367 42.04 129.719 42.1306 130.007 42.312C130.295 42.4826 130.514 42.7386 130.663 43.08C130.812 43.4106 130.887 43.8266 130.887 44.328V51H128.919V44.648C128.919 44.3173 128.844 44.0666 128.695 43.896C128.546 43.7253 128.322 43.64 128.023 43.64C127.81 43.64 127.628 43.688 127.479 43.784C127.34 43.88 127.239 44.008 127.175 44.168C127.111 44.3173 127.079 44.4986 127.079 44.712V48.328C127.079 49.192 126.85 49.88 126.391 50.392C125.943 50.904 125.239 51.16 124.279 51.16Z" fill="#1C231F"/>
<path d="M125.185 54.568C125.11 54.44 125.051 54.2906 125.009 54.12C124.966 53.96 124.945 53.7946 124.945 53.624C124.945 53.1333 125.089 52.7653 125.377 52.52C125.665 52.2746 126.075 52.152 126.609 52.152C127.003 52.152 127.366 52.2 127.697 52.296C128.017 52.392 128.326 52.488 128.625 52.584C128.913 52.68 129.211 52.728 129.521 52.728C129.755 52.728 129.99 52.696 130.225 52.632C130.449 52.568 130.662 52.472 130.865 52.344V53.768C130.47 54.0133 130.027 54.136 129.537 54.136C129.206 54.136 128.897 54.088 128.609 53.992C128.321 53.9066 128.049 53.816 127.793 53.72C127.526 53.624 127.275 53.576 127.041 53.576C126.71 53.576 126.545 53.72 126.545 54.008C126.545 54.0933 126.561 54.184 126.593 54.28C126.614 54.3866 126.651 54.4826 126.705 54.568H125.185Z" fill="#1C231F"/>
<path d="M136.337 55.048C135.601 55.048 134.945 54.9413 134.369 54.728C133.803 54.5146 133.355 54.2 133.025 53.784C132.694 53.3786 132.529 52.8826 132.529 52.296C132.529 52.008 132.577 51.7466 132.673 51.512C132.769 51.2773 132.918 51.064 133.121 50.872L134.705 51.624C134.63 51.7093 134.571 51.8 134.529 51.896C134.486 51.992 134.465 52.1093 134.465 52.248C134.465 52.5146 134.534 52.7386 134.673 52.92C134.811 53.112 135.019 53.256 135.297 53.352C135.574 53.4586 135.905 53.512 136.289 53.512C136.929 53.512 137.43 53.3626 137.793 53.064C138.166 52.776 138.353 52.344 138.353 51.768V49.464C138.353 49.1653 138.289 48.8986 138.161 48.664C138.043 48.4186 137.867 48.2053 137.633 48.024C137.409 47.832 137.126 47.6613 136.785 47.512C136.443 47.352 136.059 47.1973 135.633 47.048C135.163 46.888 134.731 46.728 134.337 46.568C133.942 46.408 133.595 46.2266 133.297 46.024C133.009 45.8106 132.785 45.5546 132.625 45.256C132.465 44.9573 132.385 44.5946 132.385 44.168C132.385 43.6773 132.486 43.2773 132.689 42.968C132.891 42.648 133.169 42.4133 133.521 42.264C133.873 42.1146 134.273 42.04 134.721 42.04C135.115 42.04 135.467 42.088 135.777 42.184C136.097 42.28 136.385 42.392 136.641 42.52C136.897 42.6373 137.131 42.744 137.345 42.84C137.569 42.936 137.782 42.984 137.985 42.984C138.145 42.984 138.257 42.9466 138.321 42.872C138.385 42.7866 138.417 42.6693 138.417 42.52V42.2H140.305V42.632C140.305 43.1013 140.23 43.48 140.081 43.768C139.931 44.056 139.723 44.264 139.457 44.392C139.19 44.52 138.886 44.584 138.545 44.584C138.203 44.584 137.878 44.536 137.569 44.44C137.259 44.344 136.961 44.2373 136.673 44.12C136.395 43.992 136.123 43.88 135.857 43.784C135.59 43.688 135.323 43.64 135.057 43.64C134.833 43.64 134.662 43.688 134.545 43.784C134.427 43.88 134.369 44.0133 134.369 44.184C134.369 44.4186 134.47 44.616 134.673 44.776C134.886 44.936 135.169 45.0746 135.521 45.192C135.873 45.3093 136.257 45.4426 136.673 45.592C137.238 45.784 137.745 45.992 138.193 46.216C138.651 46.44 139.035 46.696 139.345 46.984C139.665 47.272 139.91 47.608 140.081 47.992C140.262 48.3653 140.353 48.8133 140.353 49.336V51.768C140.353 52.3866 140.203 52.9413 139.905 53.432C139.606 53.9333 139.158 54.328 138.561 54.616C137.974 54.904 137.233 55.048 136.337 55.048Z" fill="#1C231F"/>
<path d="M143.41 51.16L141.922 50.04C142.231 49.7733 142.471 49.464 142.642 49.112C142.812 48.7493 142.898 48.28 142.898 47.704V44.2C142.898 43.9866 142.85 43.8373 142.754 43.752C142.668 43.656 142.535 43.608 142.354 43.608C142.247 43.608 142.146 43.624 142.05 43.656C141.964 43.6773 141.879 43.6986 141.794 43.72L141.49 42.36C141.724 42.2533 141.991 42.1733 142.29 42.12C142.599 42.0666 142.876 42.04 143.122 42.04C143.74 42.04 144.194 42.2106 144.482 42.552C144.78 42.8933 144.93 43.3946 144.93 44.056V47.88C144.93 48.232 144.988 48.536 145.106 48.792C145.234 49.0373 145.415 49.2293 145.65 49.368C145.884 49.496 146.162 49.56 146.482 49.56C146.983 49.56 147.367 49.4 147.634 49.08C147.9 48.76 148.034 48.3226 148.034 47.768V42.2H150.082V47.864C150.082 48.5253 149.964 49.1013 149.73 49.592C149.495 50.0826 149.143 50.4666 148.674 50.744C148.215 51.0213 147.644 51.16 146.962 51.16C146.375 51.16 145.868 51.0586 145.442 50.856C145.015 50.6426 144.642 50.3226 144.322 49.896H144.274C144.178 50.1306 144.05 50.3653 143.89 50.6C143.74 50.8346 143.58 51.0213 143.41 51.16Z" fill="#1C231F"/>
<path d="M6.92803 84.88V81.712C6.92803 81.5306 6.88537 81.4026 6.80003 81.328C6.72537 81.2533 6.61336 81.216 6.46403 81.216C6.2827 81.216 6.0747 81.264 5.84003 81.36C5.61603 81.456 5.36537 81.568 5.08803 81.696C4.82137 81.8133 4.5227 81.92 4.19203 82.016C3.86136 82.112 3.50403 82.16 3.12003 82.16C2.72536 82.16 2.35203 82.096 2.00003 81.968C1.64803 81.8293 1.36536 81.616 1.15203 81.328C0.938698 81.04 0.832031 80.6666 0.832031 80.208C0.832031 79.792 0.922698 79.44 1.10403 79.152C1.28536 78.8533 1.53603 78.5973 1.85603 78.384C2.17603 78.1706 2.5387 77.984 2.94403 77.824C3.34936 77.6533 3.78136 77.4826 4.24003 77.312C4.7947 77.1093 5.25337 76.9386 5.61603 76.8C5.98937 76.6613 6.27203 76.512 6.46403 76.352C6.65603 76.1813 6.75203 75.9626 6.75203 75.696C6.75203 75.44 6.67203 75.232 6.51203 75.072C6.35203 74.9013 6.12803 74.7786 5.84003 74.704C5.5627 74.6186 5.23737 74.576 4.86403 74.576C4.4907 74.576 4.1547 74.6186 3.85603 74.704C3.55736 74.7893 3.3227 74.9226 3.15203 75.104C2.98136 75.2746 2.89603 75.4933 2.89603 75.76C2.89603 75.8986 2.91736 76.016 2.96003 76.112C3.01336 76.208 3.07736 76.304 3.15203 76.4L1.61603 77.168C1.41336 77.0186 1.24803 76.8106 1.12003 76.544C1.0027 76.2666 0.944031 75.968 0.944031 75.648C0.944031 75.1786 1.0827 74.7466 1.36003 74.352C1.63736 73.9466 2.06403 73.6266 2.64003 73.392C3.2267 73.1573 3.97337 73.04 4.88003 73.04C5.7867 73.04 6.5227 73.1626 7.08803 73.408C7.66403 73.6426 8.08003 73.9573 8.33603 74.352C8.6027 74.7466 8.73603 75.1893 8.73603 75.68C8.73603 76.0853 8.64537 76.432 8.46403 76.72C8.2827 77.008 8.03203 77.264 7.71203 77.488C7.39203 77.7013 7.0187 77.8986 6.59203 78.08C6.17603 78.2506 5.72803 78.4213 5.24803 78.592C4.83203 78.7413 4.43736 78.8853 4.06403 79.024C3.6907 79.152 3.3867 79.296 3.15203 79.456C2.92803 79.616 2.81603 79.808 2.81603 80.032C2.81603 80.192 2.86936 80.3253 2.97603 80.432C3.09336 80.5386 3.24803 80.592 3.44003 80.592C3.66403 80.592 3.90936 80.5386 4.17603 80.432C4.4427 80.3253 4.7307 80.2026 5.04003 80.064C5.34936 79.9253 5.66936 79.8026 6.00003 79.696C6.34136 79.5893 6.68803 79.536 7.04003 79.536C7.39203 79.536 7.69603 79.6053 7.95203 79.744C8.20803 79.872 8.40537 80.0746 8.54403 80.352C8.6827 80.6186 8.75203 80.9706 8.75203 81.408V84.88H6.92803Z" fill="#1C231F"/>
<path d="M12.1188 82V75.52C12.1188 75.1893 12.0334 74.9546 11.8628 74.816C11.6921 74.6773 11.4521 74.608 11.1428 74.608C10.9294 74.608 10.7268 74.6346 10.5348 74.688C10.3428 74.7306 10.1721 74.784 10.0228 74.848L9.76678 73.408C10.0121 73.3013 10.3108 73.216 10.6628 73.152C11.0148 73.0773 11.3774 73.04 11.7508 73.04C12.5188 73.04 13.1108 73.216 13.5268 73.568C13.9534 73.9093 14.1668 74.4533 14.1668 75.2V82H12.1188Z" fill="#1C231F"/>
<path d="M19.554 82.16C18.818 82.16 18.1674 82.0533 17.602 81.84C17.0367 81.616 16.594 81.296 16.274 80.88C15.954 80.464 15.794 79.968 15.794 79.392C15.794 79.136 15.826 78.9066 15.89 78.704C15.954 78.4906 16.0394 78.2933 16.146 78.112L17.778 78.64C17.7247 78.7253 17.682 78.8213 17.65 78.928C17.6287 79.0346 17.618 79.152 17.618 79.28C17.618 79.664 17.7727 79.9786 18.082 80.224C18.402 80.4586 18.85 80.576 19.426 80.576C20.1407 80.576 20.6954 80.352 21.09 79.904C21.4847 79.4453 21.682 78.6933 21.682 77.648C21.682 76.8906 21.5754 76.2933 21.362 75.856C21.1487 75.4186 20.8447 75.1093 20.45 74.928C20.066 74.736 19.602 74.64 19.058 74.64C18.578 74.64 18.098 74.6986 17.618 74.816C17.138 74.9226 16.6527 75.088 16.162 75.312V73.696C16.5887 73.504 17.074 73.3493 17.618 73.232C18.1727 73.104 18.7647 73.04 19.394 73.04C20.0554 73.04 20.6474 73.1253 21.17 73.296C21.7034 73.456 22.1567 73.712 22.53 74.064C22.914 74.416 23.2074 74.88 23.41 75.456C23.6127 76.032 23.714 76.736 23.714 77.568C23.714 78.6773 23.538 79.568 23.186 80.24C22.834 80.912 22.3487 81.4026 21.73 81.712C21.1114 82.0106 20.386 82.16 19.554 82.16Z" fill="#1C231F"/>
<path d="M28.4818 82.16C27.5751 82.16 26.8711 81.9146 26.3698 81.424C25.8791 80.9333 25.6338 80.2346 25.6338 79.328V73.2H27.6178V79.488C27.6178 79.8186 27.6978 80.08 27.8578 80.272C28.0178 80.4533 28.2471 80.544 28.5458 80.544C29.1538 80.544 29.4578 80.192 29.4578 79.488V75.312C29.4578 75.0133 29.3991 74.7413 29.2818 74.496C29.1751 74.2506 29.0151 74.0426 28.8018 73.872L30.1778 72.976C30.3698 73.0613 30.5404 73.1946 30.6898 73.376C30.8498 73.5466 30.9778 73.7493 31.0738 73.984H31.1378C31.3618 73.6853 31.6498 73.456 32.0018 73.296C32.3538 73.1253 32.7431 73.04 33.1698 73.04C33.6071 73.04 33.9698 73.1306 34.2578 73.312C34.5564 73.4826 34.7751 73.7386 34.9138 74.08C35.0631 74.4106 35.1378 74.8266 35.1378 75.328V79.488C35.1378 79.712 35.1751 79.904 35.2498 80.064C35.3351 80.224 35.4471 80.3466 35.5858 80.432C35.7351 80.5066 35.9058 80.544 36.0978 80.544C36.3965 80.544 36.6151 80.448 36.7538 80.256C36.9031 80.0533 36.9778 79.76 36.9778 79.376V73.2H38.9618V79.504C38.9618 80.0906 38.8818 80.5813 38.7218 80.976C38.5618 81.36 38.3271 81.6533 38.0178 81.856C37.7084 82.0586 37.3191 82.16 36.8498 82.16C36.3804 82.16 35.9591 82.0586 35.5858 81.856C35.2124 81.6426 34.8978 81.3386 34.6418 80.944H34.5938C34.5084 81.1893 34.3965 81.4186 34.2578 81.632C34.1298 81.8346 33.9858 82.0106 33.8258 82.16L32.4498 81.152C32.7271 80.864 32.9404 80.5173 33.0898 80.112C33.2391 79.696 33.3138 79.2373 33.3138 78.736V75.696C33.3138 75.376 33.2284 75.1253 33.0578 74.944C32.8871 74.752 32.6364 74.656 32.3058 74.656C32.0924 74.656 31.9058 74.6986 31.7458 74.784C31.5964 74.8693 31.4844 74.9866 31.4098 75.136C31.3351 75.2853 31.2978 75.472 31.2978 75.696V79.328C31.2978 80.2346 31.0524 80.9333 30.5618 81.424C30.0818 81.9146 29.3884 82.16 28.4818 82.16Z" fill="#1C231F"/>
<path d="M37.1227 86.56V84.928C37.1227 84.7893 37.0907 84.6826 37.0267 84.608C36.9627 84.544 36.8613 84.512 36.7227 84.512C36.6373 84.512 36.552 84.5226 36.4667 84.544C36.3813 84.5653 36.3067 84.5866 36.2427 84.608L35.9707 83.472C36.1413 83.3866 36.3707 83.312 36.6587 83.248C36.936 83.184 37.1867 83.152 37.4107 83.152C37.8267 83.152 38.1627 83.264 38.4187 83.488C38.6747 83.7226 38.8027 84.096 38.8027 84.608V86.56H37.1227Z" fill="#1C231F"/>
<path d="M36.9909 71.808V68.816H38.8949V71.808H36.9909Z" fill="#1C231F"/>
<path d="M41.7749 82.176C41.5189 82.176 41.2682 82.144 41.0229 82.08C40.7776 82.0266 40.5482 81.952 40.3349 81.856L40.6229 80.496C40.7189 80.528 40.8149 80.5546 40.9109 80.576C41.0069 80.5866 41.0976 80.592 41.1829 80.592C41.3536 80.592 41.4869 80.5493 41.5829 80.464C41.6789 80.3786 41.7269 80.2346 41.7269 80.032V73.2H43.7749V78.88C43.7749 79.3066 43.8496 79.6426 43.9989 79.888C44.1482 80.1333 44.3402 80.3093 44.5749 80.416C44.8096 80.512 45.0602 80.56 45.3269 80.56C45.8602 80.56 46.2496 80.4053 46.4949 80.096C46.7509 79.7866 46.8789 79.344 46.8789 78.768V73.2H48.9109V78.912C48.9109 79.584 48.7936 80.1653 48.5589 80.656C48.3242 81.136 47.9776 81.5093 47.5189 81.776C47.0602 82.032 46.4842 82.16 45.7909 82.16C45.2789 82.16 44.8256 82.08 44.4309 81.92C44.0469 81.7493 43.7002 81.4826 43.3909 81.12H42.7989L43.3589 80.608V80.928C43.3589 81.3226 43.2149 81.632 42.9269 81.856C42.6496 82.0693 42.2656 82.176 41.7749 82.176Z" fill="#1C231F"/>
<path d="M54.144 82.16C53.3334 82.16 52.6774 81.9786 52.176 81.616C51.6747 81.2426 51.312 80.7146 51.088 80.032C50.864 79.3493 50.752 78.544 50.752 77.616C50.752 76.5493 50.8694 75.68 51.104 75.008C51.3494 74.336 51.68 73.84 52.096 73.52C52.5227 73.2 52.992 73.04 53.504 73.04C53.92 73.04 54.2667 73.1306 54.544 73.312C54.8214 73.4933 55.0187 73.7333 55.136 74.032H55.184C55.344 73.7333 55.5787 73.4933 55.888 73.312C56.208 73.1306 56.592 73.04 57.04 73.04C57.7867 73.04 58.3307 73.2906 58.672 73.792C59.024 74.2826 59.2 74.9546 59.2 75.808V82H57.152V75.888C57.152 75.4933 57.0934 75.1893 56.976 74.976C56.8694 74.752 56.688 74.64 56.432 74.64C56.1974 74.64 56.016 74.736 55.888 74.928C55.76 75.1093 55.68 75.3493 55.648 75.648H54.672C54.64 75.3386 54.56 75.0933 54.432 74.912C54.3147 74.7306 54.1494 74.64 53.936 74.64C53.6054 74.64 53.328 74.8693 53.104 75.328C52.8907 75.7866 52.784 76.5226 52.784 77.536C52.784 78.2506 52.8427 78.832 52.96 79.28C53.088 79.728 53.2747 80.0586 53.52 80.272C53.776 80.4853 54.1067 80.592 54.512 80.592C54.64 80.592 54.768 80.5813 54.896 80.56C55.0347 80.5386 55.1627 80.5066 55.28 80.464L55.536 81.92C55.3227 82.0053 55.0987 82.064 54.864 82.096C54.64 82.1386 54.4 82.16 54.144 82.16Z" fill="#1C231F"/>
<path d="M62.6013 76.64C61.9506 76.64 61.4813 76.4853 61.1933 76.176C60.916 75.856 60.7773 75.504 60.7773 75.12C60.7773 75.0026 60.7879 74.8746 60.8093 74.736C60.8306 74.5866 60.8573 74.4426 60.8893 74.304C60.9319 74.1546 60.9799 74.032 61.0333 73.936H62.5853C62.5426 74.0106 62.5053 74.1013 62.4733 74.208C62.452 74.3146 62.4413 74.4266 62.4413 74.544C62.4413 74.6933 62.4839 74.8213 62.5693 74.928C62.6546 75.024 62.7933 75.072 62.9853 75.072H65.3053V76.64H62.6013ZM62.6013 81.392C61.9506 81.392 61.4813 81.2373 61.1933 80.928C60.916 80.6186 60.7773 80.272 60.7773 79.888C60.7773 79.7706 60.7879 79.6373 60.8093 79.488C60.8306 79.3386 60.8573 79.1946 60.8893 79.056C60.9319 78.9066 60.9799 78.784 61.0333 78.688H62.5853C62.5426 78.7733 62.5053 78.8693 62.4733 78.976C62.452 79.0826 62.4413 79.1946 62.4413 79.312C62.4413 79.4613 62.4839 79.584 62.5693 79.68C62.6546 79.776 62.7933 79.824 62.9853 79.824H65.3053V81.392H62.6013Z" fill="#1C231F"/>
<path d="M68.9109 82.16C68.1856 82.16 67.6362 81.936 67.2629 81.488C66.9002 81.04 66.7189 80.4373 66.7189 79.68C66.7189 79.1253 66.8149 78.6453 67.0069 78.24C67.2096 77.824 67.5082 77.504 67.9029 77.28C68.2976 77.0453 68.7882 76.928 69.3749 76.928C70.0469 76.928 70.5749 77.0773 70.9589 77.376C71.3429 77.664 71.6042 78.0586 71.7429 78.56L72.2389 80.256C72.2816 80.4053 72.3456 80.5173 72.4309 80.592C72.5162 80.656 72.6176 80.688 72.7349 80.688C72.8736 80.688 72.9802 80.6453 73.0549 80.56C73.1296 80.4746 73.1669 80.352 73.1669 80.192V76.576C73.1669 76.128 73.0496 75.7653 72.8149 75.488C72.5802 75.2 72.2602 74.9866 71.8549 74.848C71.4496 74.7093 70.9749 74.64 70.4309 74.64C69.9296 74.64 69.3856 74.6986 68.7989 74.816C68.2122 74.9226 67.6842 75.0826 67.2149 75.296V73.712C67.5029 73.584 67.8389 73.472 68.2229 73.376C68.6176 73.2693 69.0389 73.1893 69.4869 73.136C69.9349 73.072 70.3829 73.04 70.8309 73.04C71.6522 73.04 72.3882 73.1573 73.0389 73.392C73.6896 73.616 74.2016 73.9733 74.5749 74.464C74.9589 74.944 75.1509 75.568 75.1509 76.336V80.048C75.1509 80.752 74.9376 81.28 74.5109 81.632C74.0842 81.984 73.5242 82.16 72.8309 82.16C72.2336 82.16 71.7642 82.032 71.4229 81.776C71.0922 81.5093 70.8522 81.1253 70.7029 80.624L70.2709 79.216C70.1962 78.9813 70.0789 78.8 69.9189 78.672C69.7696 78.544 69.5776 78.48 69.3429 78.48C69.0656 78.48 68.8416 78.576 68.6709 78.768C68.5109 78.9493 68.4309 79.2373 68.4309 79.632C68.4309 79.984 68.4949 80.2506 68.6229 80.432C68.7616 80.6026 68.9696 80.688 69.2469 80.688C69.3322 80.688 69.4176 80.6826 69.5029 80.672C69.5882 80.6506 69.6682 80.6293 69.7429 80.608L70.0629 81.952C69.9242 82.0053 69.7536 82.0533 69.5509 82.096C69.3589 82.1386 69.1456 82.16 68.9109 82.16Z" fill="#1C231F"/>
<path d="M73.3102 86.56V84.928C73.3102 84.7893 73.2782 84.6826 73.2142 84.608C73.1502 84.544 73.0488 84.512 72.9102 84.512C72.8248 84.512 72.7395 84.5226 72.6542 84.544C72.5688 84.5653 72.4942 84.5866 72.4302 84.608L72.1582 83.472C72.3288 83.3866 72.5582 83.312 72.8462 83.248C73.1235 83.184 73.3742 83.152 73.5982 83.152C74.0142 83.152 74.3502 83.264 74.6062 83.488C74.8622 83.7226 74.9902 84.096 74.9902 84.608V86.56H73.3102Z" fill="#1C231F"/>
<path d="M77.9624 82.176C77.7064 82.176 77.4557 82.144 77.2104 82.08C76.9651 82.0266 76.7357 81.952 76.5224 81.856L76.8104 80.496C76.9064 80.528 77.0024 80.5546 77.0984 80.576C77.1944 80.5866 77.2851 80.592 77.3704 80.592C77.5411 80.592 77.6744 80.5493 77.7704 80.464C77.8664 80.3786 77.9144 80.2346 77.9144 80.032V73.2H79.9624V78.88C79.9624 79.3066 80.0371 79.6426 80.1864 79.888C80.3357 80.1333 80.5277 80.3093 80.7624 80.416C80.9971 80.512 81.2477 80.56 81.5144 80.56C82.0477 80.56 82.4371 80.4053 82.6824 80.096C82.9384 79.7866 83.0664 79.344 83.0664 78.768V73.2H85.0984V78.912C85.0984 79.584 84.9811 80.1653 84.7464 80.656C84.5117 81.136 84.1651 81.5093 83.7064 81.776C83.2477 82.032 82.6717 82.16 81.9784 82.16C81.4664 82.16 81.0131 82.08 80.6184 81.92C80.2344 81.7493 79.8877 81.4826 79.5784 81.12H78.9864L79.5464 80.608V80.928C79.5464 81.3226 79.4024 81.632 79.1144 81.856C78.8371 82.0693 78.4531 82.176 77.9624 82.176Z" fill="#1C231F"/>
<path d="M91.0515 82.16C89.7395 82.16 88.7742 81.8453 88.1555 81.216C87.5369 80.576 87.2275 79.6746 87.2275 78.512V73.2H89.2755V78.72C89.2755 79.3066 89.4142 79.76 89.6915 80.08C89.9795 80.4 90.4329 80.56 91.0515 80.56C91.6702 80.56 92.1182 80.4 92.3955 80.08C92.6835 79.76 92.8275 79.3066 92.8275 78.72V73.2H94.8595V78.512C94.8595 79.6746 94.5502 80.576 93.9315 81.216C93.3235 81.8453 92.3635 82.16 91.0515 82.16Z" fill="#1C231F"/>
<path d="M100.673 82.16C99.9265 82.16 99.2545 82.0533 98.6572 81.84C98.0705 81.616 97.6118 81.3066 97.2812 80.912C96.9505 80.5066 96.7852 80.032 96.7852 79.488C96.7852 79.264 96.8118 79.0666 96.8652 78.896C96.9292 78.7253 97.0038 78.576 97.0892 78.448L98.6892 78.928C98.6572 79.0026 98.6305 79.0826 98.6092 79.168C98.5985 79.2426 98.5932 79.312 98.5932 79.376C98.5932 79.6213 98.6892 79.84 98.8812 80.032C99.0838 80.2133 99.3452 80.352 99.6652 80.448C99.9852 80.544 100.316 80.592 100.657 80.592C101.446 80.592 102.033 80.3413 102.417 79.84C102.812 79.328 103.009 78.592 103.009 77.632C103.009 76.6293 102.801 75.8773 102.385 75.376C101.969 74.8746 101.34 74.624 100.497 74.624C99.9745 74.624 99.5372 74.7253 99.1852 74.928C98.8332 75.1306 98.6572 75.4133 98.6572 75.776C98.6572 76.1066 98.8118 76.368 99.1212 76.56C99.4412 76.752 99.8838 76.848 100.449 76.848C100.726 76.848 101.009 76.8266 101.297 76.784C101.585 76.7306 101.868 76.6506 102.145 76.544C102.433 76.4266 102.689 76.288 102.913 76.128L103.489 77.312C103.212 77.5253 102.897 77.7066 102.545 77.856C102.204 77.9946 101.836 78.1013 101.441 78.176C101.046 78.2506 100.641 78.288 100.225 78.288C99.1478 78.288 98.3052 78.0586 97.6972 77.6C97.0892 77.1306 96.7852 76.5066 96.7852 75.728C96.7852 75.2053 96.9238 74.7413 97.2012 74.336C97.4892 73.9306 97.9105 73.616 98.4652 73.392C99.0305 73.1573 99.7078 73.04 100.497 73.04C101.382 73.04 102.161 73.2 102.833 73.52C103.516 73.84 104.049 74.3413 104.433 75.024C104.817 75.696 105.009 76.576 105.009 77.664C105.009 78.6986 104.828 79.552 104.465 80.224C104.113 80.8853 103.612 81.376 102.961 81.696C102.31 82.0053 101.548 82.16 100.673 82.16Z" fill="#1C231F"/>
<path d="M107.894 82.16L106.406 81.04C106.715 80.7733 106.955 80.464 107.126 80.112C107.297 79.7493 107.382 79.28 107.382 78.704V75.2C107.382 74.9866 107.334 74.8373 107.238 74.752C107.153 74.656 107.019 74.608 106.838 74.608C106.731 74.608 106.63 74.624 106.534 74.656C106.449 74.6773 106.363 74.6986 106.278 74.72L105.974 73.36C106.209 73.2533 106.475 73.1733 106.774 73.12C107.083 73.0666 107.361 73.04 107.606 73.04C108.225 73.04 108.678 73.2106 108.966 73.552C109.265 73.8933 109.414 74.3946 109.414 75.056V78.88C109.414 79.232 109.473 79.536 109.59 79.792C109.718 80.0373 109.899 80.2293 110.134 80.368C110.369 80.496 110.646 80.56 110.966 80.56C111.467 80.56 111.851 80.4 112.118 80.08C112.385 79.76 112.518 79.3226 112.518 78.768V73.2H114.566V78.864C114.566 79.5253 114.449 80.1013 114.214 80.592C113.979 81.0826 113.627 81.4666 113.158 81.744C112.699 82.0213 112.129 82.16 111.446 82.16C110.859 82.16 110.353 82.0586 109.926 81.856C109.499 81.6426 109.126 81.3226 108.806 80.896H108.758C108.662 81.1306 108.534 81.3653 108.374 81.6C108.225 81.8346 108.065 82.0213 107.894 82.16Z" fill="#1C231F"/>
<path d="M120.789 80.976C120.789 80.5173 120.906 80.1973 121.141 80.016C121.386 79.824 121.679 79.728 122.021 79.728C122.362 79.728 122.65 79.824 122.885 80.016C123.13 80.1973 123.253 80.5173 123.253 80.976C123.253 81.4133 123.13 81.728 122.885 81.92C122.65 82.112 122.362 82.208 122.021 82.208C121.679 82.208 121.386 82.112 121.141 81.92C120.906 81.728 120.789 81.4133 120.789 80.976Z" fill="#1C231F"/>
<path d="M125.21 80.976C125.21 80.5173 125.328 80.1973 125.562 80.016C125.808 79.824 126.101 79.728 126.442 79.728C126.784 79.728 127.072 79.824 127.306 80.016C127.552 80.1973 127.674 80.5173 127.674 80.976C127.674 81.4133 127.552 81.728 127.306 81.92C127.072 82.112 126.784 82.208 126.442 82.208C126.101 82.208 125.808 82.112 125.562 81.92C125.328 81.728 125.21 81.4133 125.21 80.976Z" fill="#1C231F"/>
<path d="M129.632 80.976C129.632 80.5173 129.75 80.1973 129.984 80.016C130.23 79.824 130.523 79.728 130.864 79.728C131.206 79.728 131.494 79.824 131.728 80.016C131.974 80.1973 132.096 80.5173 132.096 80.976C132.096 81.4133 131.974 81.728 131.728 81.92C131.494 82.112 131.206 82.208 130.864 82.208C130.523 82.208 130.23 82.112 129.984 81.92C129.75 81.728 129.632 81.4133 129.632 80.976Z" fill="#1C231F"/>
</svg>
