<svg width="22" height="22" viewBox="0 0 22 22" fill="none" xmlns="http://www.w3.org/2000/svg">
<path d="M18.7778 13.2222H3.22222C1.99492 13.2222 1 14.2171 1 15.4444V18.7778C1 20.0051 1.99492 21 3.22222 21H18.7778C20.0051 21 21 20.0051 21 18.7778V15.4444C21 14.2171 20.0051 13.2222 18.7778 13.2222Z" stroke="black" stroke-width="2"/>
<path d="M8.77778 1.55556H3.22222C2.63285 1.55556 2.06762 1.78968 1.65087 2.20643C1.23413 2.62318 1 3.18841 1 3.77778V7.11111C1 7.70048 1.23413 8.26571 1.65087 8.68246C2.06762 9.09921 2.63285 9.33333 3.22222 9.33333H8.77778" stroke="black" stroke-width="2" stroke-linecap="round"/>
<path d="M16.5538 9.88889C19.0084 9.88889 20.9983 7.89904 20.9983 5.44444C20.9983 2.98985 19.0084 1 16.5538 1C14.0992 1 12.1094 2.98985 12.1094 5.44444C12.1094 7.89904 14.0992 9.88889 16.5538 9.88889Z" stroke="black" stroke-width="2"/>
<path d="M16.5573 7.11117C17.4778 7.11117 18.224 6.36497 18.224 5.4445C18.224 4.52402 17.4778 3.77783 16.5573 3.77783C15.6368 3.77783 14.8906 4.52402 14.8906 5.4445C14.8906 6.36497 15.6368 7.11117 16.5573 7.11117Z" fill="black"/>
</svg>
