<svg width="125" height="20" viewBox="0 0 125 20" fill="none" xmlns="http://www.w3.org/2000/svg">
<path d="M4 9H6V11H4V9ZM4 13H6V15H4V13ZM8 9H10V11H8V9ZM8 13H10V15H8V13ZM12 9H14V11H12V9ZM12 13H14V15H12V13Z" fill="black"/>
<path d="M2 20H16C17.103 20 18 19.103 18 18V4C18 2.897 17.103 2 16 2H14V0H12V2H6V0H4V2H2C0.897 2 0 2.897 0 4V18C0 19.103 0.897 20 2 20ZM16 6L16.001 18H2V6H16Z" fill="black"/>
<path d="M31.6798 18H30.3038V10.016C30.3038 9.70665 30.3038 9.44531 30.3038 9.23198C30.3145 9.01865 30.3252 8.82131 30.3358 8.63998C30.3465 8.44798 30.3572 8.25065 30.3678 8.04798C30.1972 8.21865 30.0425 8.36265 29.9038 8.47998C29.7652 8.59731 29.5892 8.74665 29.3758 8.92798L28.1598 9.91998L27.4238 8.97598L30.5118 6.57598H31.6798V18Z" fill="black"/>
<path d="M39.5561 10.992C40.3347 10.992 41.0121 11.1253 41.5881 11.392C42.1641 11.6586 42.6067 12.0426 42.9161 12.544C43.2361 13.0346 43.3961 13.6373 43.3961 14.352C43.3961 15.1413 43.2254 15.824 42.8841 16.4C42.5427 16.9653 42.0521 17.4026 41.4121 17.712C40.7827 18.0106 40.0201 18.16 39.1241 18.16C38.5374 18.16 37.9827 18.1066 37.4601 18C36.9481 17.8933 36.5161 17.7386 36.1641 17.536V16.208C36.5481 16.4426 37.0121 16.6293 37.5561 16.768C38.1107 16.896 38.6387 16.96 39.1401 16.96C39.7054 16.96 40.1961 16.8746 40.6121 16.704C41.0387 16.5226 41.3694 16.2506 41.6041 15.888C41.8387 15.5146 41.9561 15.0506 41.9561 14.496C41.9561 13.7493 41.7267 13.1786 41.2681 12.784C40.8094 12.3786 40.0841 12.176 39.0921 12.176C38.7934 12.176 38.4521 12.2026 38.0681 12.256C37.6841 12.3093 37.3747 12.3626 37.1401 12.416L36.4361 11.968L36.8681 6.57598H42.5961V7.85598H38.0681L37.7961 11.168C37.9774 11.136 38.2227 11.0986 38.5321 11.056C38.8414 11.0133 39.1827 10.992 39.5561 10.992Z" fill="black"/>
<path d="M52.0526 18.16C51.3379 18.16 50.7672 17.9413 50.3406 17.504C49.9246 17.056 49.7166 16.3786 49.7166 15.472V9.23198H51.1246V15.488C51.1246 16.0106 51.2259 16.3946 51.4286 16.64C51.6312 16.8746 51.9299 16.992 52.3246 16.992C52.7512 16.992 53.0712 16.864 53.2846 16.608C53.4979 16.352 53.6046 15.9626 53.6046 15.44V9.23198H54.9806V15.44C54.9806 15.9626 55.0872 16.352 55.3006 16.608C55.5139 16.864 55.8339 16.992 56.2606 16.992C56.6552 16.992 56.9539 16.8746 57.1566 16.64C57.3592 16.3946 57.4606 16.0106 57.4606 15.488V9.23198H58.8686V15.472C58.8686 16.3786 58.6606 17.056 58.2446 17.504C57.8286 17.9413 57.2579 18.16 56.5326 18.16C55.9992 18.16 55.5406 18.0533 55.1566 17.84C54.7832 17.616 54.5112 17.3386 54.3406 17.008H54.2446C54.0739 17.3386 53.7966 17.616 53.4126 17.84C53.0392 18.0533 52.5859 18.16 52.0526 18.16Z" fill="black"/>
<path d="M62.5553 12.256C61.894 12.256 61.4247 12.1173 61.1473 11.84C60.87 11.552 60.7313 11.232 60.7313 10.88C60.7313 10.7733 60.742 10.6666 60.7633 10.56C60.7847 10.4426 60.8113 10.336 60.8433 10.24C60.886 10.1333 60.934 10.0426 60.9873 9.96798H62.2193C62.1767 10.0426 62.1393 10.1386 62.1073 10.256C62.086 10.3626 62.0753 10.4746 62.0753 10.592C62.0753 10.7306 62.1127 10.8533 62.1873 10.96C62.262 11.0666 62.3953 11.12 62.5873 11.12H65.1953V12.256H62.5553ZM62.5553 17.296C61.894 17.296 61.4247 17.1573 61.1473 16.88C60.87 16.592 60.7313 16.272 60.7313 15.92C60.7313 15.8133 60.742 15.7066 60.7633 15.6C60.7847 15.4826 60.8113 15.3706 60.8433 15.264C60.886 15.1573 60.934 15.0666 60.9873 14.992H62.2193C62.1767 15.0773 62.1393 15.1733 62.1073 15.28C62.086 15.3866 62.0753 15.4986 62.0753 15.616C62.0753 15.7653 62.1127 15.8933 62.1873 16C62.262 16.096 62.3953 16.144 62.5873 16.144H65.1953V17.296H62.5553Z" fill="black"/>
<path d="M69.3085 18L68.7805 14.64C68.7378 14.384 68.6525 14.208 68.5245 14.112C68.4071 14.016 68.2418 13.968 68.0285 13.968C67.9325 13.968 67.8311 13.9786 67.7245 14C67.6285 14.0106 67.5378 14.0266 67.4525 14.048L67.2285 13.024C67.4205 12.9386 67.6178 12.88 67.8205 12.848C68.0231 12.816 68.2151 12.8 68.3965 12.8C68.8338 12.8 69.1965 12.912 69.4845 13.136C69.7725 13.36 69.9698 13.808 70.0765 14.48L70.4445 16.832C70.9138 16.832 71.3085 16.7253 71.6285 16.512C71.9485 16.288 72.1885 15.9413 72.3485 15.472C72.5085 14.992 72.5885 14.368 72.5885 13.6C72.5885 12.7893 72.4925 12.1386 72.3005 11.648C72.1085 11.1573 71.8045 10.8 71.3885 10.576C70.9725 10.352 70.4285 10.24 69.7565 10.24C69.2658 10.24 68.7751 10.2986 68.2845 10.416C67.7938 10.5333 67.3298 10.72 66.8925 10.976V9.72798C67.2018 9.56798 67.6231 9.41865 68.1565 9.27998C68.6898 9.14131 69.2871 9.07198 69.9485 9.07198C71.3885 9.07198 72.4231 9.46131 73.0525 10.24C73.6818 11.0186 73.9965 12.1493 73.9965 13.632C73.9965 14.5386 73.8738 15.3173 73.6285 15.968C73.3831 16.6186 72.9831 17.12 72.4285 17.472C71.8845 17.824 71.1431 18 70.2045 18H69.3085Z" fill="black"/>
<path d="M68.8562 7.96798C68.4829 7.96798 68.1255 7.90398 67.7842 7.77598C67.4429 7.64798 67.1655 7.46131 66.9522 7.21598C66.7389 6.97065 66.6322 6.66665 66.6322 6.30398C66.6322 5.85598 66.7975 5.48265 67.1282 5.18398C67.4482 4.87465 67.8749 4.64531 68.4082 4.49598C68.9309 4.33598 69.4962 4.25598 70.1042 4.25598C70.7122 4.25598 71.2829 4.33598 71.8162 4.49598C72.3389 4.64531 72.7655 4.87465 73.0962 5.18398C73.4162 5.48265 73.5762 5.85598 73.5762 6.30398C73.5762 6.66665 73.4695 6.97598 73.2562 7.23198C73.0322 7.47731 72.7495 7.66398 72.4082 7.79198C72.0669 7.90931 71.7149 7.96798 71.3522 7.96798L71.1282 7.15198C71.1495 7.15198 71.2189 7.14131 71.3362 7.11998C71.4535 7.08798 71.5815 7.04531 71.7202 6.99198C71.8589 6.92798 71.9815 6.84265 72.0882 6.73598C72.1949 6.61865 72.2482 6.46398 72.2482 6.27198C72.2482 5.96265 72.0669 5.71731 71.7042 5.53598C71.3415 5.34398 70.8082 5.24798 70.1042 5.24798C69.4002 5.24798 68.8669 5.34398 68.5042 5.53598C68.1309 5.71731 67.9442 5.96265 67.9442 6.27198C67.9442 6.46398 67.9975 6.61865 68.1042 6.73598C68.2109 6.84265 68.3389 6.92798 68.4882 6.99198C68.6269 7.04531 68.7549 7.08798 68.8722 7.11998C68.9895 7.14131 69.0535 7.15198 69.0642 7.15198L68.8562 7.96798Z" fill="black"/>
<path d="M76.6281 18.096C76.4574 18.096 76.2707 18.0746 76.0681 18.032C75.8654 18 75.6681 17.9466 75.4761 17.872L75.6841 16.88C75.7801 16.912 75.8761 16.9386 75.9721 16.96C76.0681 16.9706 76.1534 16.976 76.2281 16.976C76.4094 16.976 76.5587 16.928 76.6761 16.832C76.8041 16.7253 76.8681 16.5493 76.8681 16.304V12.144C76.8681 11.5573 76.7774 11.0826 76.5961 10.72C76.4147 10.3573 76.2121 10.0693 75.9881 9.85598L77.0121 9.07198C77.1614 9.19998 77.3161 9.38665 77.4761 9.63198C77.6361 9.87732 77.7641 10.1226 77.8601 10.368H77.9081C78.1534 10.0373 78.4201 9.78131 78.7081 9.59998C79.0067 9.40798 79.3161 9.27465 79.6361 9.19998C79.9667 9.11465 80.3027 9.07198 80.6441 9.07198C81.2947 9.07198 81.8441 9.19465 82.2921 9.43998C82.7401 9.68531 83.0814 10.0533 83.3161 10.544C83.5507 11.024 83.6681 11.6266 83.6681 12.352V18H82.2601V12.448C82.2601 11.9786 82.1961 11.584 82.0681 11.264C81.9401 10.9333 81.7374 10.6826 81.4601 10.512C81.1934 10.3306 80.8307 10.24 80.3721 10.24C80.1267 10.24 79.8814 10.272 79.6361 10.336C79.3907 10.4 79.1614 10.5066 78.9481 10.656C78.7454 10.8053 78.5801 11.0133 78.4521 11.28C78.3347 11.5466 78.2761 11.8826 78.2761 12.288V16.24C78.2761 16.8266 78.1321 17.2853 77.8441 17.616C77.5561 17.936 77.1507 18.096 76.6281 18.096Z" fill="black"/>
<path d="M97.4605 18H89.9085V16.832L92.9005 13.808C93.4764 13.232 93.9618 12.72 94.3565 12.272C94.7511 11.824 95.0498 11.3866 95.2525 10.96C95.4551 10.5226 95.5564 10.048 95.5564 9.53598C95.5564 8.90665 95.3698 8.43198 94.9965 8.11198C94.6231 7.78131 94.1378 7.61598 93.5405 7.61598C92.9858 7.61598 92.4951 7.71198 92.0685 7.90398C91.6525 8.09598 91.2258 8.36265 90.7885 8.70398L90.0365 7.75998C90.3351 7.50398 90.6605 7.27465 91.0125 7.07198C91.3751 6.86931 91.7645 6.70931 92.1805 6.59198C92.6071 6.47465 93.0604 6.41598 93.5405 6.41598C94.2551 6.41598 94.8685 6.53865 95.3805 6.78398C95.8925 7.02931 96.2871 7.38131 96.5645 7.83998C96.8525 8.28798 96.9965 8.82665 96.9965 9.45598C96.9965 10.0533 96.8738 10.6133 96.6285 11.136C96.3831 11.6586 96.0418 12.176 95.6045 12.688C95.1671 13.1893 94.6551 13.728 94.0685 14.304L91.6845 16.656V16.72H97.4605V18Z" fill="black"/>
<path d="M106.665 12.272C106.665 13.2 106.595 14.0266 106.457 14.752C106.318 15.4773 106.094 16.096 105.785 16.608C105.486 17.1093 105.091 17.4933 104.601 17.76C104.121 18.0266 103.539 18.16 102.857 18.16C102.003 18.16 101.294 17.9253 100.729 17.456C100.174 16.9866 99.758 16.3146 99.4807 15.44C99.214 14.5546 99.0807 13.4986 99.0807 12.272C99.0807 11.0346 99.2034 9.97865 99.4487 9.10398C99.7047 8.22931 100.11 7.56265 100.665 7.10398C101.219 6.63465 101.95 6.39998 102.857 6.39998C103.71 6.39998 104.419 6.63465 104.985 7.10398C105.55 7.56265 105.971 8.22931 106.249 9.10398C106.526 9.97865 106.665 11.0346 106.665 12.272ZM100.489 12.272C100.489 13.3173 100.563 14.1866 100.713 14.88C100.873 15.5733 101.123 16.096 101.465 16.448C101.817 16.7893 102.281 16.96 102.857 16.96C103.433 16.96 103.891 16.7893 104.233 16.448C104.585 16.1066 104.841 15.5893 105.001 14.896C105.161 14.192 105.241 13.3173 105.241 12.272C105.241 11.2266 105.161 10.3626 105.001 9.67998C104.841 8.98665 104.585 8.46931 104.233 8.12798C103.891 7.77598 103.433 7.59998 102.857 7.59998C102.281 7.59998 101.817 7.77598 101.465 8.12798C101.123 8.46931 100.873 8.98665 100.713 9.67998C100.563 10.3626 100.489 11.2266 100.489 12.272Z" fill="black"/>
<path d="M115.773 18H108.221V16.832L111.213 13.808C111.789 13.232 112.274 12.72 112.669 12.272C113.064 11.824 113.362 11.3866 113.565 10.96C113.768 10.5226 113.869 10.048 113.869 9.53598C113.869 8.90665 113.682 8.43198 113.309 8.11198C112.936 7.78131 112.45 7.61598 111.853 7.61598C111.298 7.61598 110.808 7.71198 110.381 7.90398C109.965 8.09598 109.538 8.36265 109.101 8.70398L108.349 7.75998C108.648 7.50398 108.973 7.27465 109.325 7.07198C109.688 6.86931 110.077 6.70931 110.493 6.59198C110.92 6.47465 111.373 6.41598 111.853 6.41598C112.568 6.41598 113.181 6.53865 113.693 6.78398C114.205 7.02931 114.6 7.38131 114.877 7.83998C115.165 8.28798 115.309 8.82665 115.309 9.45598C115.309 10.0533 115.186 10.6133 114.941 11.136C114.696 11.6586 114.354 12.176 113.917 12.688C113.48 13.1893 112.968 13.728 112.381 14.304L109.997 16.656V16.72H115.773V18Z" fill="black"/>
<path d="M124.497 9.24798C124.497 9.75998 124.401 10.2026 124.209 10.576C124.017 10.9493 123.74 11.2533 123.377 11.488C123.025 11.7226 122.609 11.888 122.129 11.984V12.048C123.047 12.1546 123.729 12.4426 124.177 12.912C124.625 13.3813 124.849 13.9946 124.849 14.752C124.849 15.4133 124.695 16.0053 124.385 16.528C124.076 17.04 123.596 17.44 122.945 17.728C122.305 18.016 121.479 18.16 120.465 18.16C119.868 18.16 119.313 18.112 118.801 18.016C118.289 17.9306 117.799 17.7706 117.329 17.536V16.224C117.809 16.4586 118.327 16.6453 118.881 16.784C119.436 16.912 119.969 16.976 120.481 16.976C121.505 16.976 122.241 16.7786 122.689 16.384C123.148 15.9786 123.377 15.424 123.377 14.72C123.377 14.24 123.249 13.856 122.993 13.568C122.748 13.2693 122.385 13.0506 121.905 12.912C121.425 12.7733 120.849 12.704 120.177 12.704H119.073V11.504H120.193C120.823 11.504 121.345 11.4133 121.761 11.232C122.188 11.0506 122.508 10.8 122.721 10.48C122.945 10.1493 123.057 9.77065 123.057 9.34398C123.057 8.78931 122.871 8.36265 122.497 8.06398C122.124 7.75465 121.617 7.59998 120.977 7.59998C120.572 7.59998 120.204 7.64265 119.873 7.72798C119.543 7.80265 119.233 7.91465 118.945 8.06398C118.668 8.20265 118.385 8.36798 118.097 8.55998L117.393 7.59998C117.799 7.27998 118.3 7.00265 118.897 6.76798C119.505 6.53331 120.193 6.41598 120.961 6.41598C122.156 6.41598 123.041 6.68265 123.617 7.21598C124.204 7.74932 124.497 8.42665 124.497 9.24798Z" fill="black"/>
</svg>
