<?xml version="1.0" standalone="no"?>
<!DOCTYPE svg PUBLIC "-//W3C//DTD SVG 20010904//EN"
 "http://www.w3.org/TR/2001/REC-SVG-20010904/DTD/svg10.dtd">
<svg version="1.0" xmlns="http://www.w3.org/2000/svg"
 width="144.000000pt" height="144.000000pt" viewBox="0 0 144.000000 144.000000"
 preserveAspectRatio="xMidYMid meet">

<g transform="translate(0.000000,144.000000) scale(0.100000,-0.100000)"
fill="#000000" stroke="none">
<path d="M613 1113 c-15 -5 -18 -120 -4 -141 5 -8 17 -12 27 -10 15 2 20 14
22 58 5 88 -6 109 -45 93z"/>
<path d="M443 1043 c-23 -9 -14 -32 29 -79 28 -30 48 -44 62 -42 37 5 31 37
-15 84 -42 43 -51 48 -76 37z"/>
<path d="M744 1008 c-48 -44 -56 -81 -19 -86 31 -4 109 79 100 107 -10 31 -30
26 -81 -21z"/>
<path d="M371 871 c-8 -5 -11 -16 -6 -30 6 -19 14 -21 75 -21 72 0 85 7 75 40
-5 17 -15 20 -68 20 -34 0 -68 -4 -76 -9z"/>
<path d="M616 854 c-14 -13 -16 -51 -16 -255 0 -147 4 -248 10 -260 7 -12 21
-19 39 -19 22 0 43 16 97 74 l69 74 100 7 c55 4 106 12 113 17 6 6 12 23 12
38 0 23 -28 51 -182 184 -185 158 -210 172 -242 140z m217 -198 c90 -77 124
-112 115 -117 -7 -5 -44 -9 -83 -9 l-69 0 -68 -69 -68 -70 0 205 0 205 23 -18
c13 -10 80 -67 150 -127z"/>
</g>
</svg>
