<svg width="78" height="20" viewBox="0 0 78 20" fill="none" xmlns="http://www.w3.org/2000/svg">
<rect x="0.5" y="0.5" width="77" height="19" rx="9.5" stroke="#CCCCCC"/>
<circle cx="67.5" cy="10" r="8.5" fill="#2E3192"/>
<path fill-rule="evenodd" clip-rule="evenodd" d="M69.165 6.37056C69.1993 6.24246 69.2831 6.13325 69.398 6.06696C69.5129 6.00066 69.6494 5.98271 69.7775 6.01706C69.9056 6.05141 70.0148 6.13523 70.0811 6.2501C70.1474 6.36496 70.1653 6.50146 70.131 6.62956L70.0015 7.11256C69.9671 7.24066 69.8833 7.34987 69.7684 7.41616C69.6536 7.48246 69.5171 7.50041 69.389 7.46606C69.2609 7.43172 69.1517 7.34789 69.0854 7.23302C69.0191 7.11816 69.0011 6.98166 69.0355 6.85356L69.165 6.37056ZM71.2865 7.78506C71.35 7.76774 71.4163 7.76314 71.4817 7.77153C71.547 7.77992 71.61 7.80113 71.6671 7.83394C71.7242 7.86676 71.7743 7.91053 71.8144 7.96274C71.8545 8.01496 71.8839 8.07459 71.901 8.13821C71.918 8.20182 71.9223 8.26818 71.9136 8.33346C71.9049 8.39874 71.8834 8.46166 71.8503 8.51861C71.8172 8.57555 71.7732 8.6254 71.7208 8.6653C71.6684 8.70519 71.6087 8.73433 71.545 8.75106L71.062 8.88056C70.9341 8.91414 70.7981 8.89571 70.6838 8.8293C70.5695 8.7629 70.4861 8.65392 70.452 8.52621C70.4178 8.3985 70.4356 8.26245 70.5015 8.14783C70.5673 8.0332 70.6759 7.94933 70.8035 7.91456L71.2865 7.78506ZM66.8795 7.50056C66.833 7.45411 66.7962 7.39896 66.7711 7.33828C66.746 7.27759 66.7331 7.21256 66.7331 7.14688C66.7331 7.08121 66.7461 7.01618 66.7713 6.95552C66.7964 6.89485 66.8333 6.83973 66.8797 6.79331C66.9262 6.74689 66.9813 6.71007 67.042 6.68496C67.1027 6.65985 67.1677 6.64694 67.2334 6.64696C67.2991 6.64698 67.3641 6.65994 67.4248 6.68509C67.4854 6.71025 67.5405 6.74711 67.587 6.79356L67.9405 7.14706C67.9869 7.19352 68.0238 7.24867 68.0489 7.30936C68.0741 7.37006 68.087 7.43511 68.087 7.50081C68.087 7.56651 68.0741 7.63156 68.0489 7.69226C68.0238 7.75296 67.9869 7.80811 67.9405 7.85456C67.894 7.90102 67.8389 7.93787 67.7782 7.96301C67.7175 7.98815 67.6524 8.00109 67.5867 8.00109C67.521 8.00109 67.456 7.98815 67.3953 7.96301C67.3346 7.93787 67.2794 7.90102 67.233 7.85456L66.8795 7.50056ZM70.415 11.0366L70.0615 10.6831C69.9676 10.5893 69.9148 10.4621 69.9147 10.3294C69.9146 10.1967 69.9672 10.0694 70.061 9.97556C70.1547 9.88167 70.2819 9.82888 70.4146 9.82878C70.5473 9.82869 70.6746 9.88131 70.7685 9.97506L71.1225 10.3286C71.2163 10.4224 71.269 10.5496 71.269 10.6823C71.269 10.815 71.2163 10.9422 71.1225 11.0361C71.0286 11.1299 70.9014 11.1826 70.7687 11.1826C70.636 11.1826 70.5088 11.1299 70.415 11.0361V11.0366ZM68.815 8.45106C68.9058 8.41469 69.0054 8.40579 69.1012 8.42545C69.1971 8.44512 69.2851 8.49249 69.3543 8.5617C69.4235 8.63091 69.4709 8.7189 69.4906 8.81478C69.5102 8.91066 69.5013 9.0102 69.465 9.10106L67.465 14.1011C67.4291 14.1905 67.3682 14.2678 67.2895 14.3234C67.2108 14.3791 67.1177 14.4108 67.0214 14.4148C66.925 14.4187 66.8296 14.3948 66.7466 14.3458C66.6636 14.2968 66.5965 14.2248 66.5535 14.1386L65.8635 12.7591L64.3545 14.2691C64.2606 14.3628 64.1334 14.4155 64.0008 14.4154C63.8682 14.4154 63.741 14.3626 63.6472 14.2688C63.5535 14.175 63.5008 14.0478 63.5009 13.9151C63.5009 13.7825 63.5536 13.6553 63.6475 13.5616L65.157 12.0516L63.777 11.3621C63.6909 11.3189 63.6191 11.2518 63.5702 11.1688C63.5214 11.0858 63.4975 10.9905 63.5015 10.8943C63.5056 10.7981 63.5373 10.7051 63.5929 10.6264C63.6485 10.5478 63.7256 10.4869 63.815 10.4511L68.815 8.45106Z" fill="white"/>
<path d="M9.40847 12.5801C9.04047 12.5801 8.7098 12.5267 8.41647 12.4201C8.12847 12.3081 7.89914 12.1534 7.72847 11.9561C7.56314 11.7534 7.48047 11.5161 7.48047 11.2441C7.48047 11.1321 7.4938 11.0387 7.52047 10.9641C7.55247 10.8894 7.58714 10.8227 7.62447 10.7641L8.31247 10.9641C8.29114 11.0067 8.27514 11.0494 8.26447 11.0921C8.2538 11.1294 8.24847 11.1667 8.24847 11.2041C8.24847 11.3481 8.3018 11.4734 8.40847 11.5801C8.52047 11.6814 8.66447 11.7614 8.84047 11.8201C9.01647 11.8734 9.20314 11.9001 9.40047 11.9001C9.8218 11.9001 10.1391 11.7694 10.3525 11.5081C10.5658 11.2467 10.6725 10.8547 10.6725 10.3321C10.6725 9.79338 10.5578 9.39072 10.3285 9.12405C10.1045 8.85205 9.76314 8.71605 9.30447 8.71605C9.01114 8.71605 8.76314 8.77205 8.56047 8.88405C8.36314 8.99605 8.26447 9.15872 8.26447 9.37205C8.26447 9.56405 8.35247 9.71605 8.52847 9.82805C8.70447 9.93472 8.9498 9.98805 9.26447 9.98805C9.4138 9.98805 9.56847 9.97472 9.72847 9.94805C9.88847 9.92138 10.0458 9.87872 10.2005 9.82005C10.3605 9.76138 10.5071 9.68138 10.6405 9.58005L10.9125 10.1081C10.7631 10.2201 10.5951 10.3161 10.4085 10.3961C10.2218 10.4707 10.0245 10.5267 9.81647 10.5641C9.6138 10.6014 9.41114 10.6201 9.20847 10.6201C8.66447 10.6201 8.24047 10.5054 7.93647 10.2761C7.63247 10.0414 7.48047 9.73472 7.48047 9.35605C7.48047 9.10005 7.5498 8.87338 7.68847 8.67605C7.82714 8.47338 8.03247 8.31605 8.30447 8.20405C8.57647 8.08672 8.9098 8.02805 9.30447 8.02805C9.7258 8.02805 10.1018 8.10538 10.4325 8.26005C10.7631 8.40938 11.0245 8.65472 11.2165 8.99605C11.4138 9.33738 11.5125 9.78538 11.5125 10.3401C11.5125 10.8734 11.4218 11.3054 11.2405 11.6361C11.0591 11.9667 10.8085 12.2067 10.4885 12.3561C10.1738 12.5054 9.8138 12.5801 9.40847 12.5801Z" fill="black"/>
<path d="M10.3417 7.40405V5.96405H11.1577V7.40405H10.3417Z" fill="black"/>
<path d="M13.1462 12.5001V9.17205C13.1462 8.99605 13.1035 8.87338 13.0182 8.80405C12.9382 8.72938 12.8182 8.69205 12.6582 8.69205C12.5355 8.69205 12.4235 8.70538 12.3222 8.73205C12.2262 8.75872 12.1408 8.78805 12.0662 8.82005L11.9462 8.21205C12.0582 8.15872 12.1968 8.11605 12.3622 8.08405C12.5328 8.04672 12.7035 8.02805 12.8742 8.02805C13.2208 8.02805 13.4955 8.11072 13.6982 8.27605C13.9008 8.43605 14.0022 8.69205 14.0022 9.04405V12.5001H13.1462Z" fill="black"/>
<path d="M15.594 12.5801L14.978 12.1081C15.106 11.9907 15.2127 11.8414 15.298 11.6601C15.3887 11.4787 15.434 11.2441 15.434 10.9561V9.01205C15.434 8.90005 15.41 8.82005 15.362 8.77205C15.3194 8.71872 15.2474 8.69205 15.146 8.69205C15.098 8.69205 15.05 8.70005 15.002 8.71605C14.954 8.72672 14.9087 8.73738 14.866 8.74805L14.738 8.16405C14.8447 8.12138 14.962 8.08938 15.09 8.06805C15.218 8.04138 15.338 8.02805 15.45 8.02805C15.7327 8.02805 15.9434 8.11072 16.082 8.27605C16.2207 8.44138 16.29 8.68138 16.29 8.99605V10.9561C16.29 11.1534 16.3247 11.3214 16.394 11.4601C16.4687 11.5987 16.5727 11.7054 16.706 11.7801C16.8447 11.8547 17.0047 11.8921 17.186 11.8921C17.474 11.8921 17.6927 11.8041 17.842 11.6281C17.9967 11.4521 18.074 11.2041 18.074 10.8841V8.10805H18.93V10.9161C18.93 11.2574 18.8687 11.5534 18.746 11.8041C18.6287 12.0494 18.4527 12.2414 18.218 12.3801C17.9834 12.5134 17.698 12.5801 17.362 12.5801C17.0794 12.5801 16.8287 12.5294 16.61 12.4281C16.3967 12.3214 16.21 12.1587 16.05 11.9401H16.026C15.978 12.0627 15.914 12.1854 15.834 12.3081C15.754 12.4254 15.674 12.5161 15.594 12.5801Z" fill="black"/>
<path d="M20.9717 12.5801C20.6144 12.5801 20.3477 12.4734 20.1717 12.2601C20.0011 12.0414 19.9157 11.7481 19.9157 11.3801C19.9157 11.1134 19.9611 10.8787 20.0517 10.6761C20.1424 10.4681 20.2811 10.3081 20.4677 10.1961C20.6597 10.0787 20.8997 10.0201 21.1877 10.0201C21.5131 10.0201 21.7637 10.0921 21.9397 10.2361C22.1211 10.3801 22.2491 10.5721 22.3237 10.8121L22.6037 11.7321C22.6357 11.8227 22.6731 11.8867 22.7157 11.9241C22.7637 11.9614 22.8224 11.9801 22.8917 11.9801C22.9717 11.9801 23.0331 11.9561 23.0757 11.9081C23.1184 11.8601 23.1397 11.7881 23.1397 11.6921V9.72405C23.1397 9.48938 23.0811 9.30005 22.9637 9.15605C22.8517 9.00672 22.6917 8.89738 22.4837 8.82805C22.2811 8.75338 22.0437 8.71605 21.7717 8.71605C21.5211 8.71605 21.2464 8.74538 20.9477 8.80405C20.6491 8.86272 20.3877 8.94538 20.1637 9.05205V8.35605C20.2864 8.30272 20.4411 8.25205 20.6277 8.20405C20.8144 8.15072 21.0171 8.10805 21.2357 8.07605C21.4597 8.04405 21.6837 8.02805 21.9077 8.02805C22.3024 8.02805 22.6544 8.08672 22.9637 8.20405C23.2784 8.31605 23.5264 8.48938 23.7077 8.72405C23.8891 8.95872 23.9797 9.26272 23.9797 9.63605V11.5881C23.9797 11.9241 23.8811 12.1747 23.6837 12.3401C23.4917 12.5001 23.2331 12.5801 22.9077 12.5801C22.6304 12.5801 22.4144 12.5214 22.2597 12.4041C22.1104 12.2814 21.9984 12.1027 21.9237 11.8681L21.6597 11.0521C21.6277 10.9294 21.5691 10.8387 21.4837 10.7801C21.4037 10.7161 21.2997 10.6841 21.1717 10.6841C21.0117 10.6841 20.8837 10.7374 20.7877 10.8441C20.6971 10.9507 20.6517 11.1214 20.6517 11.3561C20.6517 11.5587 20.6891 11.7107 20.7637 11.8121C20.8384 11.9081 20.9557 11.9561 21.1157 11.9561C21.1584 11.9561 21.2011 11.9534 21.2437 11.9481C21.2917 11.9374 21.3344 11.9267 21.3717 11.9161L21.4997 12.4841C21.4411 12.5107 21.3664 12.5321 21.2757 12.5481C21.1851 12.5694 21.0837 12.5801 20.9717 12.5801Z" fill="black"/>
<path d="M25.7946 12.5001V9.17205C25.7946 8.99605 25.7519 8.87338 25.6666 8.80405C25.5866 8.72938 25.4666 8.69205 25.3066 8.69205C25.1839 8.69205 25.0719 8.70538 24.9706 8.73205C24.8746 8.75872 24.7893 8.78805 24.7146 8.82005L24.5946 8.21205C24.7066 8.15872 24.8453 8.11605 25.0106 8.08405C25.1813 8.04672 25.3519 8.02805 25.5226 8.02805C25.8693 8.02805 26.1439 8.11072 26.3466 8.27605C26.5493 8.43605 26.6506 8.69205 26.6506 9.04405V12.5001H25.7946Z" fill="black"/>
<path d="M29.6505 12.5801C29.0211 12.5801 28.5438 12.4601 28.2185 12.2201C27.8931 11.9747 27.7305 11.6361 27.7305 11.2041C27.7305 10.9907 27.7651 10.8147 27.8345 10.6761C27.9091 10.5321 28.0025 10.4201 28.1145 10.3401C28.2265 10.2601 28.3465 10.2094 28.4745 10.1881V10.1561C28.3571 10.1134 28.2398 10.0521 28.1225 9.97205C28.0105 9.88672 27.9171 9.77738 27.8425 9.64405C27.7678 9.50538 27.7305 9.34005 27.7305 9.14805C27.7305 8.96138 27.7731 8.78272 27.8585 8.61205C27.9491 8.44138 28.0905 8.30272 28.2825 8.19605C28.4798 8.08405 28.7331 8.02805 29.0425 8.02805C29.1971 8.02805 29.3438 8.04138 29.4825 8.06805C29.6211 8.08938 29.7358 8.12138 29.8265 8.16405L29.6825 8.79605C29.6238 8.77472 29.5491 8.75605 29.4585 8.74005C29.3731 8.72405 29.2825 8.71605 29.1865 8.71605C28.9891 8.71605 28.8371 8.76405 28.7305 8.86005C28.6291 8.95072 28.5785 9.08405 28.5785 9.26005C28.5785 9.41472 28.6185 9.53738 28.6985 9.62805C28.7838 9.71338 28.8905 9.77472 29.0185 9.81205C29.1518 9.84938 29.2878 9.86805 29.4265 9.86805H29.8265V10.4521H29.4265C29.1491 10.4521 28.9385 10.5081 28.7945 10.6201C28.6505 10.7267 28.5785 10.8974 28.5785 11.1321C28.5785 11.2921 28.6158 11.4307 28.6905 11.5481C28.7705 11.6601 28.8878 11.7454 29.0425 11.8041C29.2025 11.8627 29.4051 11.8921 29.6505 11.8921C29.8851 11.8921 30.0771 11.8627 30.2265 11.8041C30.3811 11.7454 30.4958 11.6547 30.5705 11.5321C30.6451 11.4041 30.6825 11.2414 30.6825 11.0441V8.10805H31.5385V10.9641C31.5385 11.3427 31.4665 11.6521 31.3225 11.8921C31.1785 12.1267 30.9651 12.3001 30.6825 12.4121C30.4051 12.5241 30.0611 12.5801 29.6505 12.5801Z" fill="black"/>
<path d="M33.5811 12.5801C33.2238 12.5801 32.9571 12.4734 32.7811 12.2601C32.6104 12.0414 32.5251 11.7481 32.5251 11.3801C32.5251 11.1134 32.5704 10.8787 32.6611 10.6761C32.7518 10.4681 32.8904 10.3081 33.0771 10.1961C33.2691 10.0787 33.5091 10.0201 33.7971 10.0201C34.1224 10.0201 34.3731 10.0921 34.5491 10.2361C34.7304 10.3801 34.8584 10.5721 34.9331 10.8121L35.2131 11.7321C35.2451 11.8227 35.2824 11.8867 35.3251 11.9241C35.3731 11.9614 35.4318 11.9801 35.5011 11.9801C35.5811 11.9801 35.6424 11.9561 35.6851 11.9081C35.7278 11.8601 35.7491 11.7881 35.7491 11.6921V9.72405C35.7491 9.48938 35.6904 9.30005 35.5731 9.15605C35.4611 9.00672 35.3011 8.89738 35.0931 8.82805C34.8904 8.75338 34.6531 8.71605 34.3811 8.71605C34.1304 8.71605 33.8558 8.74538 33.5571 8.80405C33.2584 8.86272 32.9971 8.94538 32.7731 9.05205V8.35605C32.8958 8.30272 33.0504 8.25205 33.2371 8.20405C33.4238 8.15072 33.6264 8.10805 33.8451 8.07605C34.0691 8.04405 34.2931 8.02805 34.5171 8.02805C34.9118 8.02805 35.2638 8.08672 35.5731 8.20405C35.8878 8.31605 36.1358 8.48938 36.3171 8.72405C36.4984 8.95872 36.5891 9.26272 36.5891 9.63605V11.5881C36.5891 11.9241 36.4904 12.1747 36.2931 12.3401C36.1011 12.5001 35.8424 12.5801 35.5171 12.5801C35.2398 12.5801 35.0238 12.5214 34.8691 12.4041C34.7198 12.2814 34.6078 12.1027 34.5331 11.8681L34.2691 11.0521C34.2371 10.9294 34.1784 10.8387 34.0931 10.7801C34.0131 10.7161 33.9091 10.6841 33.7811 10.6841C33.6211 10.6841 33.4931 10.7374 33.3971 10.8441C33.3064 10.9507 33.2611 11.1214 33.2611 11.3561C33.2611 11.5587 33.2984 11.7107 33.3731 11.8121C33.4478 11.9081 33.5651 11.9561 33.7251 11.9561C33.7678 11.9561 33.8104 11.9534 33.8531 11.9481C33.9011 11.9374 33.9438 11.9267 33.9811 11.9161L34.1091 12.4841C34.0504 12.5107 33.9758 12.5321 33.8851 12.5481C33.7944 12.5694 33.6931 12.5801 33.5811 12.5801Z" fill="black"/>
<path d="M38.356 9.71605C38.0306 9.71605 37.796 9.64405 37.652 9.50005C37.5133 9.35072 37.444 9.18272 37.444 8.99605C37.444 8.94272 37.4493 8.88405 37.46 8.82005C37.4706 8.75605 37.4866 8.69472 37.508 8.63605C37.5293 8.57205 37.5506 8.51872 37.572 8.47605H38.268C38.2466 8.51338 38.228 8.56138 38.212 8.62005C38.2013 8.67338 38.196 8.72938 38.196 8.78805C38.196 8.85738 38.2146 8.91872 38.252 8.97205C38.2946 9.02005 38.364 9.04405 38.46 9.04405H39.692V9.71605H38.356ZM38.356 12.1721C38.0306 12.1721 37.796 12.1001 37.652 11.9561C37.5133 11.8067 37.444 11.6387 37.444 11.4521C37.444 11.3987 37.4493 11.3401 37.46 11.2761C37.4706 11.2121 37.4866 11.1481 37.508 11.0841C37.5293 11.0201 37.5506 10.9667 37.572 10.9241H38.268C38.2466 10.9667 38.228 11.0147 38.212 11.0681C38.2013 11.1214 38.196 11.1774 38.196 11.2361C38.196 11.3107 38.2146 11.3721 38.252 11.4201C38.2946 11.4681 38.364 11.4921 38.46 11.4921H39.692V12.1721H38.356Z" fill="black"/>
<path d="M42.5257 12.5801C42.1577 12.5801 41.827 12.5267 41.5337 12.4201C41.2457 12.3081 41.0163 12.1534 40.8457 11.9561C40.6803 11.7534 40.5977 11.5161 40.5977 11.2441C40.5977 11.1321 40.611 11.0387 40.6377 10.9641C40.6697 10.8894 40.7043 10.8227 40.7417 10.7641L41.4297 10.9641C41.4083 11.0067 41.3923 11.0494 41.3817 11.0921C41.371 11.1294 41.3657 11.1667 41.3657 11.2041C41.3657 11.3481 41.419 11.4734 41.5257 11.5801C41.6377 11.6814 41.7817 11.7614 41.9577 11.8201C42.1337 11.8734 42.3203 11.9001 42.5177 11.9001C42.939 11.9001 43.2563 11.7694 43.4697 11.5081C43.683 11.2467 43.7897 10.8547 43.7897 10.3321C43.7897 9.79338 43.675 9.39072 43.4457 9.12405C43.2217 8.85205 42.8803 8.71605 42.4217 8.71605C42.1283 8.71605 41.8803 8.77205 41.6777 8.88405C41.4803 8.99605 41.3817 9.15872 41.3817 9.37205C41.3817 9.56405 41.4697 9.71605 41.6457 9.82805C41.8217 9.93472 42.067 9.98805 42.3817 9.98805C42.531 9.98805 42.6857 9.97472 42.8457 9.94805C43.0057 9.92138 43.163 9.87872 43.3177 9.82005C43.4777 9.76138 43.6243 9.68138 43.7577 9.58005L44.0297 10.1081C43.8803 10.2201 43.7123 10.3161 43.5257 10.3961C43.339 10.4707 43.1417 10.5267 42.9337 10.5641C42.731 10.6014 42.5283 10.6201 42.3257 10.6201C41.7817 10.6201 41.3577 10.5054 41.0537 10.2761C40.7497 10.0414 40.5977 9.73472 40.5977 9.35605C40.5977 9.10005 40.667 8.87338 40.8057 8.67605C40.9443 8.47338 41.1497 8.31605 41.4217 8.20405C41.6937 8.08672 42.027 8.02805 42.4217 8.02805C42.843 8.02805 43.219 8.10538 43.5497 8.26005C43.8803 8.40938 44.1417 8.65472 44.3337 8.99605C44.531 9.33738 44.6297 9.78538 44.6297 10.3401C44.6297 10.8734 44.539 11.3054 44.3577 11.6361C44.1763 11.9667 43.9257 12.2067 43.6057 12.3561C43.291 12.5054 42.931 12.5801 42.5257 12.5801Z" fill="black"/>
<path d="M47.2073 14.5161C46.8553 14.5161 46.538 14.4627 46.2553 14.3561C45.9727 14.2494 45.7513 14.0947 45.5913 13.8921C45.4313 13.6947 45.3513 13.4494 45.3513 13.1561C45.3513 13.0227 45.37 12.9027 45.4073 12.7961C45.45 12.6894 45.514 12.5881 45.5993 12.4921L46.2953 12.8281C46.258 12.8707 46.2287 12.9161 46.2073 12.9641C46.186 13.0174 46.1753 13.0814 46.1753 13.1561C46.1753 13.3001 46.2127 13.4227 46.2873 13.5241C46.3673 13.6254 46.482 13.7027 46.6313 13.7561C46.7807 13.8147 46.962 13.8441 47.1753 13.8441C47.5167 13.8441 47.7887 13.7694 47.9913 13.6201C48.194 13.4707 48.2953 13.2574 48.2953 12.9801V11.6441C48.2953 11.4947 48.266 11.3614 48.2073 11.2441C48.1487 11.1267 48.0633 11.0227 47.9513 10.9321C47.8393 10.8361 47.698 10.7481 47.5273 10.6681C47.3567 10.5881 47.1567 10.5134 46.9273 10.4441C46.6927 10.3694 46.474 10.2947 46.2713 10.2201C46.0687 10.1454 45.89 10.0574 45.7353 9.95605C45.586 9.85472 45.4687 9.73205 45.3833 9.58805C45.298 9.43872 45.2553 9.25738 45.2553 9.04405C45.2553 8.80405 45.306 8.60938 45.4073 8.46005C45.514 8.31072 45.65 8.20138 45.8153 8.13205C45.986 8.06272 46.178 8.02805 46.3913 8.02805C46.594 8.02805 46.7753 8.05472 46.9353 8.10805C47.0953 8.16138 47.242 8.22272 47.3753 8.29205C47.5087 8.35605 47.6313 8.41472 47.7433 8.46805C47.8607 8.51605 47.9727 8.54005 48.0793 8.54005C48.1647 8.54005 48.2233 8.51872 48.2553 8.47605C48.2927 8.43338 48.3113 8.36938 48.3113 8.28405V8.10805H49.1273V8.31605C49.1273 8.54005 49.0873 8.71872 49.0073 8.85205C48.9327 8.98538 48.8313 9.08138 48.7033 9.14005C48.5753 9.19872 48.434 9.22805 48.2793 9.22805C48.1087 9.22805 47.9433 9.20138 47.7833 9.14805C47.6287 9.09472 47.4767 9.03605 47.3273 8.97205C47.1833 8.90272 47.0393 8.84405 46.8953 8.79605C46.7567 8.74272 46.618 8.71605 46.4793 8.71605C46.346 8.71605 46.2473 8.74538 46.1833 8.80405C46.1193 8.85738 46.0873 8.93738 46.0873 9.04405C46.0873 9.18805 46.1407 9.30272 46.2473 9.38805C46.354 9.47338 46.4953 9.54538 46.6713 9.60405C46.8527 9.66272 47.0527 9.72672 47.2713 9.79605C47.5433 9.88672 47.794 9.98538 48.0233 10.0921C48.2527 10.1934 48.45 10.3134 48.6153 10.4521C48.7807 10.5854 48.9087 10.7454 48.9993 10.9321C49.09 11.1187 49.1353 11.3401 49.1353 11.5961V12.9721C49.1353 13.2547 49.0633 13.5134 48.9193 13.7481C48.7807 13.9827 48.5673 14.1694 48.2793 14.3081C47.9967 14.4467 47.6393 14.5161 47.2073 14.5161Z" fill="black"/>
<path d="M51.7765 12.5801C51.3819 12.5801 51.0592 12.4867 50.8085 12.3001C50.5579 12.1134 50.3765 11.8574 50.2645 11.5321C50.1525 11.2067 50.0965 10.8307 50.0965 10.4041C50.0965 9.84405 50.1845 9.39072 50.3605 9.04405C50.5365 8.69205 50.7819 8.43605 51.0965 8.27605C51.4112 8.11072 51.7792 8.02805 52.2005 8.02805C52.7925 8.02805 53.2592 8.17472 53.6005 8.46805C53.9472 8.75605 54.1205 9.17738 54.1205 9.73205V12.5001H53.2725V9.73205C53.2725 9.41205 53.1845 9.16405 53.0085 8.98805C52.8325 8.80672 52.5605 8.71605 52.1925 8.71605C51.9099 8.71605 51.6752 8.77472 51.4885 8.89205C51.3072 9.00938 51.1712 9.19338 51.0805 9.44405C50.9899 9.68938 50.9445 10.0041 50.9445 10.3881C50.9445 10.7294 50.9792 11.0147 51.0485 11.2441C51.1232 11.4681 51.2299 11.6361 51.3685 11.7481C51.5125 11.8601 51.6965 11.9161 51.9205 11.9161C51.9899 11.9161 52.0592 11.9107 52.1285 11.9001C52.1979 11.8894 52.2619 11.8734 52.3205 11.8521L52.4245 12.4761C52.3339 12.5081 52.2325 12.5321 52.1205 12.5481C52.0139 12.5694 51.8992 12.5801 51.7765 12.5801Z" fill="black"/>
</svg>
