<svg width="14" height="18" viewBox="0 0 14 18" fill="none" xmlns="http://www.w3.org/2000/svg">
<g clip-path="url(#clip0_312_979)">
<path d="M2.21875 1.96875C2.21875 1.96875 2.54688 1.64062 3.20312 0.984375C3.85938 0.328125 5.125 0 7 0C8.875 0 10.4688 0.65625 11.7812 1.96875C13.0938 3.28125 13.75 4.875 13.75 6.75C13.75 7.125 13.7383 7.44727 13.7148 7.7168C13.6914 7.98633 13.6094 8.30859 13.4688 8.68359C13.3281 9.05859 13.1992 9.375 13.082 9.63281C12.9648 9.89062 12.7305 10.3125 12.3789 10.8984C12.0273 11.4844 11.7168 11.9883 11.4473 12.4102C11.1777 12.832 10.7324 13.5352 10.1113 14.5195C9.49023 15.5039 8.93359 16.3945 8.44141 17.1914C8.11328 17.7305 7.63281 18 7 18C6.36719 18 5.88672 17.7305 5.55859 17.1914C5.06641 16.3945 4.50977 15.5039 3.88867 14.5195C3.26758 13.5352 2.82227 12.832 2.55273 12.4102C2.2832 11.9883 1.97266 11.4844 1.62109 10.8984C1.26953 10.3125 1.03516 9.89062 0.917969 9.63281C0.800781 9.375 0.671875 9.05859 0.53125 8.68359C0.390625 8.30859 0.308594 7.98633 0.285156 7.7168C0.261719 7.44727 0.25 7.125 0.25 6.75C0.25 4.875 0.90625 3.28125 2.21875 1.96875ZM7 16.3125C7.46875 15.5625 7.97266 14.7656 8.51172 13.9219C9.05078 13.0781 9.45508 12.4395 9.72461 12.0059C9.99414 11.5723 10.2812 11.1094 10.5859 10.6172C10.8906 10.125 11.1074 9.75586 11.2363 9.50977C11.3652 9.26367 11.5 9 11.6406 8.71875C11.7812 8.4375 11.875 8.20312 11.9219 8.01562C11.9688 7.82812 12.0039 7.63477 12.0273 7.43555C12.0508 7.23633 12.0625 7.00781 12.0625 6.75C12.0625 5.34375 11.5703 4.14844 10.5859 3.16406C9.60156 2.17969 8.40625 1.6875 7 1.6875C5.59375 1.6875 4.39844 2.17969 3.41406 3.16406C2.42969 4.14844 1.9375 5.34375 1.9375 6.75C1.9375 7.00781 1.94922 7.23633 1.97266 7.43555C1.99609 7.63477 2.03125 7.83398 2.07812 8.0332C2.125 8.23242 2.21875 8.47266 2.35938 8.75391C2.5 9.03516 2.64062 9.29883 2.78125 9.54492C2.92188 9.79102 3.14453 10.1602 3.44922 10.6523C3.75391 11.1445 4.04102 11.6074 4.31055 12.041C4.58008 12.4746 4.97852 13.1074 5.50586 13.9395C6.0332 14.7715 6.53125 15.5625 7 16.3125ZM5.01367 8.73633C5.01367 8.73633 4.87598 8.59863 4.60059 8.32324C4.3252 8.04785 4.1875 7.52344 4.1875 6.75C4.1875 5.97656 4.46289 5.31445 5.01367 4.76367C5.56445 4.21289 6.22656 3.9375 7 3.9375C7.77344 3.9375 8.43555 4.21289 8.98633 4.76367C9.53711 5.31445 9.8125 5.97656 9.8125 6.75C9.8125 7.52344 9.53711 8.18555 8.98633 8.73633C8.43555 9.28711 7.77344 9.5625 7 9.5625C6.22656 9.5625 5.56445 9.28711 5.01367 8.73633Z" fill="white"/>
</g>
<defs>
<clipPath id="clip0_312_979">
<rect width="13.5" height="18" fill="white" transform="matrix(1 0 0 -1 0.25 18)"/>
</clipPath>
</defs>
</svg>
