<svg width="16" height="17" viewBox="0 0 16 17" fill="none" xmlns="http://www.w3.org/2000/svg">
<g clip-path="url(#clip0_312_1072)">
<path d="M13.7506 0.95752C14.2922 0.665854 14.8235 0.691895 15.3443 1.03564C15.8651 1.37939 16.0839 1.86377 16.0006 2.48877L14.1256 14.6138C14.0422 15.0929 13.7922 15.4471 13.3756 15.6763C13.1464 15.8013 12.9068 15.8638 12.6568 15.8638C12.4485 15.8638 12.2506 15.8325 12.0631 15.77L8.56306 14.3325L7.21931 16.1763C6.92764 16.5304 6.56827 16.7284 6.14118 16.77C5.7141 16.8117 5.33389 16.6867 5.00056 16.395C4.66722 16.1034 4.50056 15.7284 4.50056 15.27V12.645L0.938058 11.145C0.354725 10.9159 0.0422247 10.4888 0.000558036 9.86377C-0.0411086 9.23877 0.208891 8.77002 0.750558 8.45752L13.7506 0.95752ZM6.00056 15.27L7.15681 13.7075L6.00056 13.2388V15.27ZM12.6568 14.3638L14.5006 2.27002L1.50056 9.77002L4.87556 11.1763L11.4693 5.39502C11.6985 5.20752 11.9224 5.21273 12.1412 5.41064C12.3599 5.60856 12.386 5.83252 12.2193 6.08252L7.84431 12.395L12.6568 14.3638Z" fill="#F7921E"/>
</g>
<defs>
<clipPath id="clip0_312_1072">
<rect width="16" height="16" fill="white" transform="matrix(1 0 0 -1 0 16.77)"/>
</clipPath>
</defs>
</svg>
