<svg width="18" height="18" viewBox="0 0 18 18" fill="none" xmlns="http://www.w3.org/2000/svg">
<g clip-path="url(#clip0_312_991)">
<path d="M17.4023 5.80078C17.8008 6.12891 18 6.5625 18 7.10156V16.3125C18 16.7812 17.8359 17.1797 17.5078 17.5078C17.1797 17.8359 16.7812 18 16.3125 18H1.6875C1.21875 18 0.820312 17.8359 0.492188 17.5078C0.164063 17.1797 0 16.7812 0 16.3125V7.06641C0 6.55078 0.210938 6.11719 0.632812 5.76562C1.57031 4.99219 3.15234 3.72656 5.37891 1.96875C5.44922 1.89844 5.58984 1.77539 5.80078 1.59961C6.01172 1.42383 6.1875 1.27734 6.32812 1.16016C6.46875 1.04297 6.66211 0.902344 6.9082 0.738281C7.1543 0.574219 7.37695 0.445312 7.57617 0.351562C7.77539 0.257812 8.00391 0.175781 8.26172 0.105469C8.51953 0.0351562 8.76562 0 9 0C9.23438 0 9.48047 0.0351562 9.73828 0.105469C9.99609 0.175781 10.2305 0.257812 10.4414 0.351562C10.6523 0.445312 10.875 0.580078 11.1094 0.755859C11.3438 0.931641 11.5312 1.07227 11.6719 1.17773C11.8125 1.2832 11.9883 1.42383 12.1992 1.59961C12.4102 1.77539 12.5508 1.89844 12.6211 1.96875C14.9648 3.82031 16.5586 5.09766 17.4023 5.80078ZM16.3125 16.1016V7.17188C16.3125 7.125 16.2891 7.07812 16.2422 7.03125C14.3438 5.48438 12.7852 4.23047 11.5664 3.26953C11.543 3.26953 11.373 3.13477 11.0566 2.86523C10.7402 2.5957 10.5 2.40234 10.3359 2.28516C10.1719 2.16797 9.95508 2.03906 9.68555 1.89844C9.41602 1.75781 9.1875 1.6875 9 1.6875C8.8125 1.6875 8.58398 1.75781 8.31445 1.89844C8.04492 2.03906 7.82812 2.16211 7.66406 2.26758C7.5 2.37305 7.25977 2.56641 6.94336 2.84766C6.62695 3.12891 6.45703 3.26953 6.43359 3.26953C5.33203 4.13672 3.77344 5.39062 1.75781 7.03125C1.71094 7.05469 1.6875 7.10156 1.6875 7.17188V16.1016C1.6875 16.2422 1.75781 16.3125 1.89844 16.3125H16.1016C16.2422 16.3125 16.3125 16.2422 16.3125 16.1016ZM15.1875 9.49219C15.375 9.72656 15.3516 9.92578 15.1172 10.0898C13.8281 11.1445 12.9961 11.8125 12.6211 12.0938C12.5508 12.1641 12.4102 12.2871 12.1992 12.4629C11.9883 12.6387 11.8125 12.7852 11.6719 12.9023C11.5312 13.0195 11.3379 13.1602 11.0918 13.3242C10.8457 13.4883 10.623 13.6172 10.4238 13.7109C10.2246 13.8047 9.99609 13.8867 9.73828 13.957C9.48047 14.0273 9.23438 14.0625 9 14.0625C8.71875 14.0625 8.43164 14.0215 8.13867 13.9395C7.8457 13.8574 7.55273 13.7227 7.25977 13.5352C6.9668 13.3477 6.73828 13.1953 6.57422 13.0781C6.41016 12.9609 6.17578 12.7793 5.87109 12.5332C5.56641 12.2871 5.40234 12.1406 5.37891 12.0938C5.00391 11.8125 4.17188 11.1445 2.88281 10.0898C2.64844 9.92578 2.625 9.72656 2.8125 9.49219L3.33984 8.85938C3.52734 8.64844 3.72656 8.625 3.9375 8.78906C5.22656 9.82031 6.05859 10.4883 6.43359 10.793C6.45703 10.793 6.62695 10.9277 6.94336 11.1973C7.25977 11.4668 7.5 11.6602 7.66406 11.7773C7.82812 11.8945 8.04492 12.0234 8.31445 12.1641C8.58398 12.3047 8.8125 12.375 9 12.375C9.14062 12.375 9.28711 12.3457 9.43945 12.2871C9.5918 12.2285 9.73828 12.1582 9.87891 12.0762C10.0195 11.9941 10.1777 11.8887 10.3535 11.7598C10.5293 11.6309 10.6816 11.5195 10.8105 11.4258C10.9395 11.332 11.0801 11.2148 11.2324 11.0742C11.3848 10.9336 11.4961 10.8398 11.5664 10.793C11.9414 10.4883 12.7734 9.82031 14.0625 8.78906C14.2734 8.625 14.4727 8.64844 14.6602 8.85938L15.1875 9.49219Z" fill="white"/>
</g>
<defs>
<clipPath id="clip0_312_991">
<rect width="18" height="18" fill="white" transform="matrix(1 0 0 -1 0 18)"/>
</clipPath>
</defs>
</svg>
