<svg width="10" height="10" viewBox="0 0 10 10" fill="none" xmlns="http://www.w3.org/2000/svg">
<path fill-rule="evenodd" clip-rule="evenodd" d="M0.370747 4.30733C0.253208 4.42483 0.159969 4.56435 0.0963552 4.71789C0.0327417 4.87144 0 5.03602 0 5.20222C0 5.36843 0.0327417 5.533 0.0963552 5.68655C0.159969 5.8401 0.253208 5.97961 0.370747 6.09712L1.80268 7.52855C1.99049 7.71619 2.23257 7.84001 2.49464 7.88248C2.75671 7.92494 3.0255 7.88391 3.26296 7.76518C3.50042 7.64645 3.69452 7.45604 3.81779 7.2209C3.94106 6.98576 3.98725 6.71781 3.94982 6.45497L4.44232 5.96248L7.51877 9.5127C7.64596 9.6593 7.80196 9.77814 7.97707 9.86183C8.15218 9.94551 8.34264 9.99224 8.5366 9.99911C8.73056 10.006 8.92385 9.97284 9.10444 9.90176C9.28503 9.83067 9.44905 9.72317 9.58629 9.58593C9.72352 9.4487 9.83103 9.28468 9.90211 9.10409C9.9732 8.9235 10.0063 8.7302 9.99947 8.53625C9.9926 8.34229 9.94587 8.15182 9.86218 7.97672C9.7785 7.80161 9.65965 7.6456 9.51306 7.51842L5.96334 4.44146L6.45533 3.94947C6.71827 3.98704 6.98636 3.94091 7.22163 3.81763C7.4569 3.69435 7.64741 3.50017 7.76617 3.26258C7.88494 3.025 7.92593 2.75608 7.88334 2.4939C7.84076 2.23173 7.71675 1.9896 7.5289 1.80182L6.09747 0.3709C5.90967 0.182985 5.66749 0.058945 5.40525 0.0163619C5.14301 -0.0262213 4.87402 0.0148125 4.63641 0.133647C4.3988 0.252482 4.20461 0.443089 4.08138 0.678452C3.95815 0.913815 3.91212 1.18199 3.94982 1.44498L1.44432 3.94998C1.24995 3.92213 1.05177 3.93998 0.865498 4.0021C0.67923 4.06422 0.510005 4.1689 0.371253 4.30783L0.370747 4.30733ZM5.56094 3.41294L3.4138 5.56008L2.33972 4.48651L4.48737 2.33886L5.56094 3.41294ZM1.08646 5.3814C1.06293 5.35791 1.04426 5.33 1.03151 5.29929C1.01876 5.26858 1.01219 5.23565 1.01217 5.2024C1.01214 5.16915 1.01867 5.13621 1.03137 5.10548C1.04408 5.07475 1.06271 5.04682 1.08621 5.02329C1.10971 4.99976 1.13761 4.98109 1.16832 4.96834C1.19903 4.9556 1.23196 4.94902 1.26521 4.949C1.29846 4.94898 1.3314 4.9555 1.36213 4.96821C1.39286 4.98091 1.42079 4.99954 1.44432 5.02304L2.87625 6.45497C2.90042 6.47832 2.9197 6.50625 2.93297 6.53712C2.94623 6.568 2.95321 6.60121 2.95351 6.63481C2.9538 6.66842 2.94739 6.70174 2.93467 6.73285C2.92194 6.76395 2.90315 6.79221 2.87939 6.81597C2.85563 6.83973 2.82737 6.85852 2.79627 6.87125C2.76516 6.88397 2.73184 6.89038 2.69823 6.89008C2.66463 6.88979 2.63142 6.88281 2.60054 6.86955C2.56967 6.85628 2.54174 6.837 2.51839 6.81283L1.08646 5.3814ZM5.02339 1.44396C4.99922 1.42062 4.97994 1.39269 4.96668 1.36182C4.95341 1.33094 4.94643 1.29773 4.94614 1.26413C4.94585 1.23052 4.95225 1.1972 4.96498 1.16609C4.9777 1.13499 4.99649 1.10673 5.02026 1.08297C5.04402 1.05921 5.07228 1.04042 5.10338 1.02769C5.13448 1.01497 5.16781 1.00856 5.20141 1.00885C5.23502 1.00915 5.26822 1.01613 5.2991 1.02939C5.32998 1.04266 5.3579 1.06194 5.38125 1.08611L6.81318 2.51804C6.83736 2.54139 6.85664 2.56931 6.8699 2.60019C6.88316 2.63107 6.89015 2.66428 6.89044 2.69788C6.89073 2.73148 6.88433 2.76481 6.8716 2.79591C6.85888 2.82702 6.84008 2.85527 6.81632 2.87904C6.79256 2.9028 6.7643 2.92159 6.7332 2.93432C6.7021 2.94704 6.66877 2.95344 6.63517 2.95315C6.60156 2.95286 6.56835 2.94588 6.53748 2.93261C6.5066 2.91935 6.47867 2.90007 6.45533 2.8759L5.02339 1.44396ZM8.28409 8.84963L5.24307 5.34091L5.34126 5.24221L8.85049 8.28323C8.89091 8.31971 8.92348 8.36402 8.94623 8.41348C8.96898 8.46294 8.98143 8.51651 8.98283 8.57094C8.98422 8.62536 8.97453 8.6795 8.95434 8.73006C8.93415 8.78062 8.90389 8.82655 8.8654 8.86504C8.8269 8.90354 8.78097 8.9338 8.73041 8.95399C8.67985 8.97418 8.62572 8.98387 8.57129 8.98247C8.51687 8.98108 8.4633 8.96863 8.41384 8.94588C8.36438 8.92313 8.32006 8.89055 8.28359 8.85013L8.28409 8.84963Z" fill="#F7921E"/>
</svg>
