<svg width="17" height="17" viewBox="0 0 17 17" fill="none" xmlns="http://www.w3.org/2000/svg">
<path fill-rule="evenodd" clip-rule="evenodd" d="M11.328 0.741121C11.3967 0.484922 11.5643 0.266503 11.7941 0.133915C12.0238 0.00132696 12.2968 -0.03457 12.553 0.034121C12.8092 0.102812 13.0276 0.270465 13.1602 0.500197C13.2928 0.729929 13.3287 1.00292 13.26 1.25912L13.001 2.22512C12.9323 2.48132 12.7646 2.69974 12.5349 2.83233C12.3052 2.96492 12.0322 3.00081 11.776 2.93212C11.5198 2.86343 11.3014 2.69578 11.1688 2.46605C11.0362 2.23631 11.0003 1.96332 11.069 1.70712L11.328 0.741121ZM15.571 3.57012C15.6981 3.53548 15.8307 3.52628 15.9614 3.54306C16.092 3.55984 16.218 3.60226 16.3322 3.66789C16.4464 3.73352 16.5466 3.82106 16.6268 3.92549C16.7071 4.02992 16.7659 4.14918 16.8 4.27641C16.834 4.40365 16.8426 4.53636 16.8252 4.66692C16.8078 4.79748 16.7648 4.92332 16.6987 5.03722C16.6325 5.15111 16.5445 5.25081 16.4397 5.33059C16.3349 5.41037 16.2154 5.46867 16.088 5.50212L15.122 5.76112C14.8662 5.82828 14.5943 5.79142 14.3657 5.65861C14.1371 5.5258 13.9703 5.30784 13.902 5.05242C13.8336 4.797 13.8692 4.5249 14.001 4.29565C14.1327 4.0664 14.3499 3.89866 14.605 3.82912L15.571 3.57012ZM6.75698 3.00112C6.66413 2.90821 6.5905 2.79792 6.54028 2.67656C6.49006 2.55519 6.46423 2.42512 6.46428 2.29377C6.46432 2.16242 6.49024 2.03237 6.54055 1.91103C6.59086 1.7897 6.66457 1.67947 6.75748 1.58662C6.85039 1.49378 6.96068 1.42014 7.08204 1.36992C7.20341 1.3197 7.33348 1.29387 7.46483 1.29392C7.59618 1.29396 7.72623 1.31988 7.84757 1.37019C7.9689 1.4205 8.07913 1.49421 8.17198 1.58712L8.87898 2.29412C8.97189 2.38703 9.04559 2.49733 9.09587 2.61872C9.14615 2.74012 9.17204 2.87023 9.17204 3.00162C9.17204 3.13302 9.14615 3.26312 9.09587 3.38452C9.04559 3.50591 8.97189 3.61621 8.87898 3.70912C8.78607 3.80203 8.67577 3.87573 8.55438 3.92601C8.43298 3.9763 8.30287 4.00218 8.17148 4.00218C8.04008 4.00218 7.90998 3.9763 7.78858 3.92601C7.66719 3.87573 7.55689 3.80203 7.46398 3.70912L6.75698 3.00112ZM13.828 10.0731L13.121 9.36612C12.9332 9.17861 12.8276 8.92419 12.8274 8.65883C12.8272 8.39346 12.9325 8.1389 13.12 7.95112C13.3075 7.76335 13.5619 7.65775 13.8273 7.65757C14.0926 7.65738 14.3472 7.76261 14.535 7.95012L15.243 8.65712C15.4306 8.84476 15.536 9.09926 15.536 9.36462C15.536 9.62998 15.4306 9.88448 15.243 10.0721C15.0553 10.2598 14.8008 10.3652 14.5355 10.3652C14.2701 10.3652 14.0156 10.2598 13.828 10.0721V10.0731ZM10.628 4.90212C10.8097 4.82938 11.0088 4.81157 11.2005 4.85091C11.3923 4.89024 11.5683 4.98499 11.7067 5.1234C11.8451 5.26182 11.9399 5.43781 11.9792 5.62956C12.0185 5.82131 12.0007 6.02039 11.928 6.20212L7.92798 16.2021C7.85631 16.3811 7.73443 16.5355 7.57702 16.6469C7.41961 16.7582 7.23338 16.8216 7.04075 16.8295C6.84812 16.8375 6.6573 16.7895 6.49128 16.6915C6.32526 16.5935 6.19111 16.4496 6.10498 16.2771L4.72498 13.5181L1.70698 16.5381C1.51934 16.7256 1.2649 16.8309 0.999626 16.8308C0.734356 16.8307 0.479986 16.7253 0.292479 16.5376C0.104971 16.35 -0.00031662 16.0955 -0.00022316 15.8303C-0.0001297 15.565 0.105337 15.3106 0.292978 15.1231L3.31198 12.1031L0.551979 10.7241C0.379822 10.6378 0.236259 10.5036 0.138544 10.3376C0.0408287 10.1716 -0.00688362 9.98099 0.0011425 9.78856C0.00916862 9.59613 0.0725918 9.41012 0.18379 9.25287C0.294989 9.09562 0.44923 8.97382 0.627979 8.90212L10.628 4.90212Z" fill="white"/>
</svg>
