<svg width="28" height="25" viewBox="0 0 28 25" fill="none" xmlns="http://www.w3.org/2000/svg">
<path d="M27.7541 22.878C28.082 23.1382 28.082 23.4146 27.7541 23.7073L26.5522 24.7805C26.2244 25.0732 25.9148 25.0732 25.6234 24.7805L19.0127 18.878C18.867 18.748 18.7941 18.6179 18.7941 18.4878V17.8049C16.6452 19.4634 14.1685 20.2927 11.3639 20.2927C8.23154 20.2927 5.55447 19.3008 3.33268 17.3171C1.11089 15.3333 0 12.9431 0 10.1463C0 7.34959 1.11089 4.95935 3.33268 2.97561C5.55447 0.991871 8.23154 0 11.3639 0C14.4963 0 17.1733 0.991871 19.3951 2.97561C21.6169 4.95935 22.7278 7.34959 22.7278 10.1463C22.7278 12.6504 21.799 14.8618 19.9415 16.7805H20.7063C20.8885 16.7805 21.0341 16.8455 21.1434 16.9756L27.7541 22.878ZM5.19024 15.6585C5.19024 15.6585 5.61821 16.0407 6.47415 16.8049C7.33008 17.5691 8.96 17.9512 11.3639 17.9512C13.7678 17.9512 15.8257 17.187 17.5376 15.6585C19.2494 14.1301 20.1054 12.2927 20.1054 10.1463C20.1054 8 19.2494 6.1626 17.5376 4.63415C15.8257 3.10569 13.7678 2.34146 11.3639 2.34146C8.96 2.34146 6.90211 3.10569 5.19024 4.63415C3.47837 6.1626 2.62244 8 2.62244 10.1463C2.62244 12.2927 3.47837 14.1301 5.19024 15.6585Z" fill="black"/>
</svg>
