<svg width="12" height="12" viewBox="0 0 12 12" fill="none" xmlns="http://www.w3.org/2000/svg">
<path fill-rule="evenodd" clip-rule="evenodd" d="M0.444896 5.16879C0.303849 5.3098 0.191962 5.47722 0.115626 5.66147C0.03929 5.84573 0 6.04322 0 6.24267C0 6.44211 0.03929 6.6396 0.115626 6.82386C0.191962 7.00812 0.303849 7.17553 0.444896 7.31654L2.16322 9.03425C2.38859 9.25943 2.67908 9.40801 2.99357 9.45897C3.30805 9.50993 3.6306 9.46069 3.91555 9.31821C4.2005 9.17574 4.43343 8.94724 4.58135 8.66508C4.72927 8.38292 4.7847 8.06137 4.73979 7.74597L5.33078 7.15497L9.02253 11.4152C9.17515 11.5912 9.36235 11.7338 9.57248 11.8342C9.78261 11.9346 10.0112 11.9907 10.2439 11.9989C10.4767 12.0072 10.7086 11.9674 10.9253 11.8821C11.142 11.7968 11.3389 11.6678 11.5035 11.5031C11.6682 11.3384 11.7972 11.1416 11.8825 10.9249C11.9678 10.7082 12.0076 10.4762 11.9994 10.2435C11.9911 10.0107 11.935 9.78219 11.8346 9.57206C11.7342 9.36193 11.5916 9.17472 11.4157 9.02211L7.156 5.32975L7.74639 4.73936C8.06192 4.78445 8.38364 4.7291 8.66596 4.58116C8.94828 4.43322 9.17689 4.2002 9.31941 3.9151C9.46192 3.63 9.51111 3.30729 9.46001 2.99268C9.40891 2.67807 9.2601 2.38752 9.03468 2.16219L7.31696 0.44508C7.0916 0.219582 6.80098 0.070734 6.4863 0.0196343C6.17161 -0.0314655 5.84883 0.017775 5.56369 0.160377C5.27856 0.302978 5.04554 0.531706 4.89766 0.814142C4.74978 1.09658 4.69455 1.41839 4.73979 1.73397L1.73318 4.73997C1.49994 4.70656 1.26212 4.72798 1.0386 4.80252C0.815076 4.87706 0.611398 5.00207 0.444896 5.16879ZM6.67313 4.09552L4.09656 6.67209L2.80766 5.38381L5.38484 2.80663L6.67313 4.09552ZM1.30375 6.45768C1.27552 6.42949 1.25311 6.39601 1.23781 6.35915C1.22252 6.32229 1.21463 6.28278 1.2146 6.24288C1.21457 6.20298 1.2224 6.16346 1.23765 6.12658C1.25289 6.0897 1.27525 6.05619 1.30345 6.02795C1.33165 5.99972 1.36513 5.97731 1.40198 5.96201C1.43884 5.94672 1.47835 5.93883 1.51825 5.9388C1.55816 5.93877 1.59768 5.9466 1.63455 5.96185C1.67143 5.97709 1.70494 5.99945 1.73318 6.02765L3.4515 7.74597C3.48051 7.77398 3.50364 7.8075 3.51956 7.84455C3.53548 7.8816 3.54386 7.92145 3.54421 7.96178C3.54456 8.0021 3.53687 8.04209 3.5216 8.07942C3.50633 8.11674 3.48378 8.15065 3.45527 8.17916C3.42675 8.20768 3.39284 8.23023 3.35552 8.2455C3.3182 8.26077 3.27821 8.26845 3.23788 8.2681C3.19756 8.26775 3.15771 8.25937 3.12065 8.24346C3.0836 8.22754 3.05009 8.2044 3.02207 8.1754L1.30375 6.45768ZM6.02807 1.73276C5.99907 1.70474 5.97593 1.67123 5.96001 1.63418C5.9441 1.59713 5.93572 1.55728 5.93537 1.51695C5.93502 1.47663 5.9427 1.43664 5.95797 1.39931C5.97324 1.36199 5.99579 1.32808 6.02431 1.29957C6.05282 1.27105 6.08673 1.2485 6.12405 1.23323C6.16138 1.21796 6.20137 1.21028 6.24169 1.21063C6.28202 1.21098 6.32187 1.21935 6.35892 1.23527C6.39597 1.25119 6.42949 1.27432 6.4575 1.30333L8.17582 3.02165C8.20483 3.04967 8.22796 3.08318 8.24388 3.12023C8.2598 3.15728 8.26818 3.19713 8.26853 3.23746C8.26888 3.27778 8.26119 3.31777 8.24592 3.3551C8.23065 3.39242 8.2081 3.42633 8.17959 3.45484C8.15107 3.48336 8.11716 3.50591 8.07984 3.52118C8.04252 3.53645 8.00253 3.54413 7.9622 3.54378C7.92188 3.54343 7.88202 3.53505 7.84497 3.51914C7.80792 3.50322 7.77441 3.48008 7.74639 3.45108L6.02807 1.73276ZM9.94091 10.6196L6.29168 6.40909L6.40952 6.29065L10.6206 9.93988C10.6691 9.98365 10.7082 10.0368 10.7355 10.0962C10.7628 10.1555 10.7777 10.2198 10.7794 10.2851C10.7811 10.3504 10.7694 10.4154 10.7452 10.4761C10.721 10.5367 10.6847 10.5919 10.6385 10.6381C10.5923 10.6842 10.5372 10.7206 10.4765 10.7448C10.4158 10.769 10.3509 10.7806 10.2856 10.779C10.2202 10.7773 10.156 10.7624 10.0966 10.7351C10.0373 10.7078 9.98468 10.6681 9.94091 10.6196Z" fill="#F7921E"/>
</svg>
