<svg width="11" height="19" viewBox="0 0 11 19" fill="none" xmlns="http://www.w3.org/2000/svg">
<path d="M0.488526 0.480201C0.333665 0.631429 0.210805 0.811059 0.126977 1.00881C0.0431491 1.20656 0 1.41855 0 1.63263C0 1.84672 0.0431491 2.05871 0.126977 2.25646C0.210805 2.45421 0.333665 2.63384 0.488526 2.78507L6.97003 9.12754L0.488526 15.47C0.176181 15.7757 0.000707339 16.1902 0.000707339 16.6224C0.000707339 17.0547 0.176181 17.4692 0.488526 17.7749C0.80087 18.0805 1.2245 18.2522 1.66622 18.2522C2.10794 18.2522 2.53157 18.0805 2.84392 17.7749L10.5115 10.2718C10.6663 10.1206 10.7892 9.94094 10.873 9.74319C10.9569 9.54544 11 9.33346 11 9.11937C11 8.90528 10.9569 8.69329 10.873 8.49554C10.7892 8.29779 10.6663 8.11816 10.5115 7.96693L2.84392 0.463854C2.20913 -0.157316 1.14002 -0.157316 0.488526 0.480201Z" fill="black"/>
</svg>
